<svg width="1233.307" height="1243.977" xmlns="http://www.w3.org/2000/svg">

 <metadata>Icon Mafia</metadata>
 <g>
  <title>background</title>
  <rect fill="none" id="canvas_background" height="402" width="582" y="-1" x="-1"/>
 </g>
 <g>
  <title>Layer 1</title>
  <path id="svg_1" d="m1224.042,23.912c1.397,-7.501 -1.534,-15.402 -8.03,-20.092c-8.327,-6.012 -19.842,-4.808 -26.771,2.776l-10.805,11.861l-17.055,7.32c-6.059,-1.874 -12.818,-2.035 -19.859,-0.295c-4.036,1 -5.23,0.765 -8.82,0.057c-7.852,-1.54 -16.064,-2.473 -29.164,1.714c-4.622,-0.27 -10.035,0.391 -18.546,3.18c-10.686,3.524 -17.339,11.924 -22.195,18.085l-1.614,2.067c-30.554,7.871 -42.624,25.046 -47.311,38.414c-0.927,2.598 -1.538,5.186 -2.035,7.775c-32.202,-24.409 -76.466,-26.623 -114.034,-4.661c-43.121,25.24 -62.406,73.024 -49.111,121.756c21.439,78.72 96.129,152.861 140.733,197.187l14.454,14.444c23.241,23.708 53.31,71.497 47.31,103.439c-1.461,7.966 -5.68,19.523 -25.152,28.341c-9.921,4.487 -19.413,7.27 -28.595,8.357c16.473,-46.178 8.507,-95.833 -22.761,-128.36c-44.634,-46.34 -86.79,-34.778 -102.897,-22.198c-6.781,5.33 -9.462,14.38 -6.662,22.525c2.821,8.149 10.521,13.63 19.179,13.622c21.419,-0.017 45.518,15.933 55.987,37.094c8.824,17.834 7.12,37.164 -4.84,56.373c-9.067,-7.395 -16.88,-15.548 -23.572,-22.58c-2.757,-2.881 -5.349,-5.604 -7.64,-7.835l-1.665,-1.846c-32.032,-36.098 -64.663,-57.159 -97.349,-62.916c-4.096,-57.769 -44.91,-116.209 -106.776,-150.185c-5.01,-2.77 -10.215,-5.224 -15.61,-7.448c-11.54,-60.358 -48.462,-100.833 -107.363,-117.405c-85.953,-24.221 -154.199,14.191 -187.249,105.332c-11.28,31.099 -35.246,137.111 -54.92,225.991l-3.703,16.656c-2.632,11.752 -16.328,32.875 -30.921,37.903c-4.028,1.415 -9.105,2.071 -16.128,-3.663c-14.331,-11.661 -5.868,-45.313 -1.317,-63.396c0.892,-3.51 1.636,-6.535 2.254,-9.288c3.72,-17.225 -1.933,-36.434 -14.78,-50.112c-12.557,-13.384 -29.935,-19.53 -47.676,-16.847c-37.574,5.657 -49.49,36.047 -54.172,49.743c-3.642,-6.953 -8.659,-16.083 -18.13,-21.492c-7.692,-4.392 -12.848,-6.14 -17.448,-6.813c-12.094,-6.805 -20.309,-7.472 -28.38,-7.523c-3.628,-0.017 -4.863,-0.017 -8.606,-1.827c-7.478,-3.561 -15.188,-4.657 -22.401,-3.282l-13.932,-8.835l-8.818,-13.435c-5.696,-8.681 -17.029,-11.623 -26.26,-6.832c-7.002,3.641 -11.017,10.902 -10.847,18.436c-6.966,3.08 -11.831,9.953 -12.03,17.951c-0.262,10.267 7.223,19.098 17.398,20.526l15.884,2.246l13.736,8.706c1.727,6.892 5.825,13.373 12.094,18.712c3.167,2.702 3.673,3.815 5.186,7.148c3.333,7.319 7.306,14.554 18.444,22.816c2.462,3.873 6.135,7.88 13.335,13.135c9.088,6.643 19.791,7.127 27.611,7.47c0.769,0.057 1.723,0.083 2.627,0.144c24.167,20.28 45.182,20.091 58.799,16.097c2.62,-0.756 5.097,-1.761 7.48,-2.849c-1.079,40.383 22.889,77.679 62.608,95.392c45.613,20.395 95.694,8.23 127.589,-30.939c51.487,-63.286 68.308,-167.161 78.337,-229.221l3.358,-20.188c5.738,-32.699 27.057,-84.961 56.516,-98.704c7.319,-3.425 19.205,-6.715 37.704,3.99c9.445,5.423 17.203,11.516 23.43,18.338c-47.115,13.513 -82.843,48.92 -91.066,93.289c-11.729,63.216 22.232,90.797 41.844,96.543c8.302,2.441 17.174,-0.661 22.181,-7.722c5.007,-7.008 4.96,-16.456 -0.056,-23.456c-12.527,-17.433 -13.575,-46.301 -2.464,-67.15c9.355,-17.541 26.075,-27.43 48.625,-28.883c-0.688,11.695 -2.793,22.801 -4.567,32.329c-0.746,3.907 -1.455,7.601 -1.941,10.773c-0.066,0.336 -0.344,1.494 -0.561,2.403c-9.723,42.807 -9.016,78.879 2.035,107.65c-47.453,29.3 -81.097,89.195 -85.97,156.131c-0.44,5.71 -0.506,11.514 -0.274,17.292c-50.059,35.647 -71.458,86.077 -62.002,146.537c13.796,88.23 77.118,134.254 173.778,126.334c32.967,-2.698 139.331,-25.034 228.344,-44.2l16.651,-3.595c11.807,-2.481 36.705,1.144 47.353,12.313c2.953,3.11 5.677,7.431 3.395,16.209c-4.622,17.879 -38.762,24.201 -57.1,27.617c-3.539,0.642 -6.615,1.207 -9.355,1.818c-17.221,3.799 -32.342,16.944 -39.416,34.317c-6.935,16.979 -5.315,35.363 4.521,50.357c20.807,31.811 53.391,29.979 67.794,28.526c-4.793,6.216 -11,14.561 -11.981,25.463c-0.777,8.804 -0.221,14.237 1.074,18.661c-1.172,13.821 1.666,21.604 4.972,28.93c1.5,3.31 1.979,4.44 1.941,8.583c-0.145,8.553 2.269,16.222 6.785,22.323l-2.995,20.776l-8.616,13.536c-5.622,8.778 -3.667,20.327 4.495,26.755a20.161,20.161 0 0 0 21.248,2.358c5.689,5.094 13.949,6.722 21.329,3.624c9.471,-3.964 14.463,-14.399 11.599,-24.273l-4.457,-15.427l3.166,-22.086c5.26,-4.439 9.216,-10.664 11.399,-18.24c1.101,-3.973 1.903,-4.902 4.313,-7.678c5.251,-6.066 10.181,-12.712 13.044,-26.249c2.523,-3.849 4.618,-8.884 6.411,-17.603c2.269,-11.025 -1.776,-20.959 -4.694,-28.212l-0.978,-2.451c8.37,-30.409 -0.553,-49.436 -9.827,-60.159c-1.823,-2.052 -3.761,-3.884 -5.719,-5.608c37.143,-15.818 61.063,-53.165 60.655,-96.665c-0.505,-49.97 -32.418,-90.401 -81.288,-103.097c-79.006,-20.429 -180.434,7.542 -241.018,24.273l-19.735,5.37c-32.143,8.413 -88.535,10.784 -113.29,-10.27c-6.157,-5.238 -14.106,-14.624 -12.086,-35.948c1.018,-10.835 3.318,-20.429 6.917,-28.922c31.921,37.215 78.991,54.937 122.746,43.924c62.359,-15.69 73.278,-58.047 70.321,-78.263c-1.231,-8.536 -7.758,-15.363 -16.222,-16.961c-8.484,-1.594 -17.055,2.357 -21.312,9.844c-10.652,18.619 -36.451,31.615 -60.031,30.209c-19.863,-1.186 -35.805,-12.266 -46.536,-32.197c10.939,-4.21 21.871,-6.951 31.299,-9.283c3.883,-0.956 7.524,-1.844 10.604,-2.72a98.01,98.01 0 0 0 2.427,-0.514c48.84,-10.231 84.016,-28.978 104.971,-55.74c48.853,24.8 114.764,23.377 174.141,-5.064c5.146,-2.469 10.189,-5.298 15.117,-8.379c55.826,25.735 110.228,19.29 158.005,-18.949c69.702,-55.774 78.242,-133.619 23.364,-213.552c-18.725,-27.288 -90.938,-108.517 -151.78,-176.244l-11.374,-12.691c-7.996,-9.016 -17.22,-32.418 -12.818,-47.219c1.211,-4.101 3.637,-8.621 12.39,-10.992c17.798,-4.846 40.249,21.625 52.303,35.848c2.337,2.766 4.334,5.137 6.245,7.235c11.846,13.074 30.758,19.638 49.334,17.176c18.21,-2.415 33.331,-12.978 41.484,-28.962c17.276,-33.846 -0.514,-61.217 -8.922,-73.007c7.775,1.087 18.108,2.336 28.055,-2.246c8.043,-3.688 12.453,-6.873 15.674,-10.202c12.576,-5.835 17.913,-12.164 22.625,-18.673c2.184,-2.942 2.885,-3.943 6.509,-5.944c9.942,-5.498 14.51,-12.778 16.634,-18.482l14.854,-6.395l16.034,0.299c10.401,0.208 19.265,-7.493 20.476,-17.815c0.898,-7.805 -2.827,-15.2 -9.133,-19.289m-550.352,564.555c-6.395,17.59 -45.841,34.8 -73.804,45.281c7.431,-14.08 17.303,-27.317 28.724,-37.963c21.614,-20.156 39.735,-19.617 43.533,-17.585c2.796,4.937 2.422,7.871 1.547,10.267zm29.738,-108.699c-5.646,0.457 -8.141,-1.079 -9.963,-2.864c-13.346,-13.156 -12.539,-56.163 -10.419,-85.962c9.705,12.608 17.638,27.114 22.565,41.946c9.297,28.007 1.267,44.274 -2.183,46.88zm102.753,100.699c-28.229,-8.736 -36.769,-24.739 -36.85,-29.032c2.89,-4.899 5.617,-6.035 8.111,-6.479c18.461,-3.171 52.97,22.508 75.938,41.598c-15.868,0.543 -32.286,-1.467 -47.199,-6.087z" fill="#ff00ff"/>
  <path id="svg_2" d="m1213.055,40.867l-18.146,-4.034l9.292,-16.606l-13.762,15.094l-29.963,12.878c-2.659,-2.855 -7.15,-4.808 -14.076,-3.093c-18.313,4.567 -18.848,-5.196 -39.187,2.213c-4.168,1.536 -2.766,-2.005 -15.916,2.333c-9.144,2.998 -15.313,18.313 -21.427,19.625c-59.007,12.631 -35.631,62.969 -27.478,72.933c10.117,12.4 1.709,16.647 -2.778,12.19c-6.997,-7.004 -15.661,-18.482 -32.291,-34.861c-56.98,-56.212 -163.124,0.939 -139.122,88.98c22.616,82.917 112.542,164.499 150.14,202.808c34.016,34.662 93.13,129.41 16.052,164.337c-26.202,11.89 -48.683,12.799 -67.828,7.962c26.891,-43.856 25.336,-99.307 -6.433,-132.337c-43.737,-45.437 -75.862,-20.292 -75.862,-20.292c50.893,-0.039 114.815,64.386 62.143,133.408a94.539,94.539 0 0 1 -6.768,7.917c-22.557,-13.36 -38.771,-33.005 -49.775,-43.856c-4.882,-4.837 -49.451,-61.642 -104.848,-60.427c4.853,-58.954 -37.788,-118.886 -96.256,-151.026a137.712,137.712 0 0 0 -23.993,-10.297c-5.728,-44.073 -27.393,-93.837 -94.789,-112.82c-102.664,-28.916 -146.386,47.625 -162.748,92.785c-14.019,38.66 -51.583,212.109 -57.905,240.202c-6.003,26.787 -43.561,74.807 -79.546,45.471c-27.757,-22.599 -10.28,-73.164 -6.073,-92.628c4.521,-20.936 -14.058,-46.567 -39.686,-42.705c-30.712,4.62 -36.465,32.837 -39.986,41.925c-7.431,19.151 -24.768,9.685 -28.256,7.401c-5.26,-3.399 -8.738,-18.744 -17.112,-23.521c-12.022,-6.861 -11.33,-3.118 -15.119,-5.426c-18.442,-11.351 -20.945,-1.905 -37.965,-10.001c-5.307,-2.532 -9.507,-2.284 -12.6,-0.858c-1.035,0.667 -1.731,1.361 -2.707,2.254l-26.835,-17.025l-11.181,-17.063l6.9,17.256l-18.931,1.7l20.214,2.847l26.498,16.802c-1.353,3.977 -0.837,9.42 5.307,14.659c14.344,12.247 6.739,18.359 24.618,30.589c3.671,2.494 -0.032,3.408 11.151,11.565c7.756,5.683 23.802,1.785 28.446,6.012c44.613,40.606 71.943,-7.693 75.293,-20.139c4.177,-15.436 12.549,-11.077 11.534,-4.846c-1.645,9.774 -5.917,23.49 -9.554,46.548c-12.542,79.085 95.747,132.11 153.356,61.325c54.223,-66.66 68.217,-187.285 77.466,-240.146c8.413,-47.837 51.011,-151.081 124.263,-108.749c24.925,14.385 38.734,32.136 45.965,50.501c-51.332,3.667 -95.504,37.241 -103.845,82.325c-11.468,61.973 27.675,73.458 27.675,73.458c-29.693,-41.354 -14.491,-130.819 72.285,-128.199a97.7,97.7 0 0 1 10.374,0.892c2.265,26.109 -4.253,50.739 -6.662,65.979c-1.066,6.556 -19.861,71.153 8.489,115.483c-53.146,21.849 -88.036,83.99 -92.756,148.763c-0.656,8.97 -0.399,17.667 0.601,26.079c-37.683,23.599 -73.868,64.03 -63.043,133.191c16.477,105.375 104.259,113.235 152.147,109.301c40.954,-3.36 214.31,-41.477 242.458,-47.416c26.869,-5.689 86.161,8.455 74.507,53.373c-9.008,34.645 -62.253,39.828 -81.671,44.094c-20.963,4.61 -36.488,32.193 -22.297,53.875c17.008,25.99 45.045,19.464 54.75,18.898c20.543,-1.206 19.128,18.491 18.508,22.617c-0.905,6.207 -13.393,15.758 -14.251,25.322c-1.232,13.783 1.887,11.604 1.359,16.006c-2.651,21.507 6.981,19.808 6.7,38.685c-0.08,5.711 1.802,9.364 4.274,11.583l0.09,-0.099l0.73,0.778l0.723,0.557l0,0.029a9.344,9.344 0 0 0 2.357,1.113l-5.204,36.047l-10.983,17.225l12.938,-13.393l9.322,16.588l-5.689,-19.617l5.26,-36.403c3.985,-0.638 8.349,-3.484 10.444,-10.852c5.162,-18.146 13.885,-13.771 17.539,-35.116c0.76,-4.372 3.097,-1.386 5.884,-14.947c1.959,-9.42 -8.276,-22.392 -6.39,-28.356c18.324,-57.504 -36.974,-62.203 -49.656,-60.091c-15.779,2.638 -15.321,-6.781 -9.207,-8.435c9.568,-2.612 23.807,-4.436 46.278,-10.715c77.111,-21.589 80.208,-142.085 -8.124,-164.964c-83.222,-21.529 -198.695,16.021 -250.586,29.622c-46.987,12.301 -158.584,16.587 -150.62,-67.658c2.694,-28.649 13.057,-48.606 26.75,-62.813c24.728,45.101 73.649,71.273 118.095,60.073c61.166,-15.368 55.277,-55.74 55.277,-55.74c-25.238,44.184 -112.867,67.684 -146.66,-12.3a104.013,104.013 0 0 1 -3.51,-9.798c22.81,-12.954 47.896,-17.271 62.78,-21.431c6.765,-1.878 81.14,-12.785 106.097,-64.221c45.479,32.767 114.696,31.611 171.852,4.189c8.115,-3.867 15.538,-8.435 22.349,-13.465c39.179,20.984 92.263,32.32 146.92,-11.399c83.285,-66.647 46.507,-146.735 19.323,-186.349c-23.274,-33.888 -142.407,-165.425 -161.591,-186.909c-18.219,-20.511 -35.435,-78.968 9.36,-91.158c34.53,-9.398 65.487,34.254 78.85,49.016c14.399,15.872 46.027,15.681 57.83,-7.41c14.123,-27.67 -5.485,-48.776 -10.8,-56.917c-11.243,-17.216 6.543,-25.76 10.43,-27.301c5.826,-2.284 20.327,3.824 29.066,-0.21c12.59,-5.772 9.152,-7.399 13.227,-9.126c19.979,-8.39 13.736,-15.908 30.227,-25.034c4.55,-2.516 6.836,-5.558 7.754,-8.529l-0.166,-0.578c0.73,-2.562 0.646,-4.321 0.276,-5.712l29.432,-12.638l20.388,0.374m-548.113,325.224c0.564,-5.5 1.07,-11.931 1.381,-19.035c28.335,19.338 48.869,50.59 58.48,79.423c13.897,41.902 -1.513,71.388 -18.231,73.294c-55.592,6.365 -45.904,-90.814 -41.63,-133.682zm-80.092,294.455c-5.232,1.801 -11.297,3.993 -17.911,6.684c5.804,-33.809 25.665,-65.504 47.888,-86.245c32.278,-30.103 65.503,-28.371 74.209,-13.961c28.927,47.867 -63.459,79.535 -104.186,93.522zm215.34,-60.771c-42.174,-13.052 -57.151,-42.781 -48.989,-57.478c27.188,-48.908 100.573,15.544 132.945,43.981c4.146,3.654 9.059,7.833 14.688,12.213c-32.23,11.77 -69.625,10.294 -98.644,1.284z"/>
  <path id="svg_3" d="m953.835,1224.651l3.828,0l0,-11.153l4.356,0l0,-2.69l-12.407,0l0,2.69l4.223,0l0,11.153m9.313,-0.459l0,-13.128l5.784,0l2.115,8.893l0.039,0l2.09,-8.893l5.646,0l0,13.128l-3.177,0l0,-10.987l-0.06,-0.038l-3.038,11.025l-3.293,0l-2.885,-11.123l-0.043,0.059l0,11.064l-3.178,0" fill="#66B933"/>
 </g>
</svg>