<svg width="7000" height="1300" xmlns="http://www.w3.org/2000/svg">

    <metadata>Icon Mafia</metadata>
    <g>
        <title>background</title>
        <rect fill="none" id="canvas_background" width="7000" height="1300" y="-1" x="-1" />
    </g>
    <g>
        <title>Layer 1</title>
        <path stroke="null" id="svg_1" d="m1225.03967,24.911397c1.397,-7.501 -1.534,-15.402 -8.03,-20.092c-8.327,-6.012 -19.842,-4.808 -26.771,2.776l-10.805,11.861l-17.055,7.32c-6.059,-1.874 -12.818,-2.035 -19.859,-0.295c-4.036,1 -5.23,0.765 -8.82,0.057c-7.852,-1.54 -16.064,-2.473 -29.164,1.714c-4.622,-0.27 -10.035,0.391 -18.546,3.18c-10.686,3.524 -17.339,11.924 -22.195,18.085l-1.614,2.067c-30.554,7.871 -42.624,25.046 -47.311,38.414c-0.927,2.598 -1.538,5.186 -2.035,7.775c-32.202,-24.409 -76.466,-26.623 -114.034,-4.661c-43.121,25.24 -62.406,73.024 -49.111,121.756c21.439,78.72 96.129,152.861 140.733,197.187l14.454,14.444c23.241,23.708 53.31,71.497 47.31,103.439c-1.461,7.966 -5.68,19.523 -25.152,28.341c-9.921,4.487 -19.413,7.27 -28.595,8.357c16.473,-46.178 8.507,-95.833 -22.761,-128.36c-44.634,-46.34 -86.79,-34.778 -102.897,-22.198c-6.781,5.33 -9.462,14.38 -6.662,22.525c2.821,8.149 10.521,13.63 19.179,13.622c21.419,-0.017 45.518,15.933 55.987,37.094c8.824,17.834 7.12,37.164 -4.84,56.373c-9.067,-7.395 -16.88,-15.548 -23.572,-22.58c-2.757,-2.881 -5.349,-5.604 -7.64,-7.835l-1.665,-1.846c-32.032,-36.098 -64.663,-57.159 -97.349,-62.916c-4.096,-57.769 -44.91,-116.209 -106.776,-150.185c-5.01,-2.77 -10.215,-5.224 -15.61,-7.448c-11.54,-60.358 -48.462,-100.833 -107.363,-117.405c-85.953,-24.221 -154.199,14.191 -187.249,105.332c-11.28,31.099 -35.246,137.111 -54.92,225.991l-3.703,16.656c-2.632,11.752 -16.328,32.875 -30.921,37.903c-4.028,1.415 -9.105,2.071 -16.128,-3.663c-14.331,-11.661 -5.868,-45.313 -1.317,-63.396c0.892,-3.51 1.636,-6.535 2.254,-9.288c3.72,-17.225 -1.933,-36.434 -14.78,-50.112c-12.557,-13.384 -29.935,-19.53 -47.676,-16.847c-37.574,5.657 -49.49,36.047 -54.172,49.743c-3.642,-6.953 -8.659,-16.083 -18.13,-21.492c-7.692,-4.392 -12.848,-6.14 -17.448,-6.813c-12.094,-6.805 -20.309,-7.472 -28.38,-7.523c-3.628,-0.017 -4.863,-0.017 -8.606,-1.827c-7.478,-3.561 -15.188,-4.657 -22.401,-3.282l-13.932,-8.835l-8.818,-13.435c-5.696,-8.681 -17.029,-11.623 -26.26,-6.832c-7.002,3.641 -11.017,10.902 -10.847,18.436c-6.966,3.08 -11.831,9.953 -12.03,17.951c-0.262,10.267 7.223,19.098 17.398,20.526l15.884,2.246l13.736,8.706c1.727,6.892 5.825,13.373 12.094,18.712c3.167,2.702 3.673,3.815 5.186,7.148c3.333,7.319 7.306,14.554 18.444,22.816c2.462,3.873 6.135,7.88 13.335,13.135c9.088,6.643 19.791,7.127 27.611,7.47c0.769,0.057 1.723,0.083 2.627,0.144c24.167,20.28 45.182,20.091 58.799,16.097c2.62,-0.756 5.097,-1.761 7.48,-2.849c-1.079,40.383 22.889,77.679 62.608,95.392c45.613,20.395 95.694,8.23 127.589,-30.939c51.487,-63.286 68.308,-167.161 78.337,-229.221l3.358,-20.188c5.738,-32.699 27.057,-84.961 56.516,-98.704c7.319,-3.425 19.205,-6.715 37.704,3.99c9.445,5.423 17.203,11.516 23.43,18.338c-47.115,13.513 -82.843,48.92 -91.066,93.289c-11.729,63.216 22.232,90.797 41.844,96.543c8.302,2.441 17.174,-0.661 22.181,-7.722c5.007,-7.008 4.96,-16.456 -0.056,-23.456c-12.527,-17.433 -13.575,-46.301 -2.464,-67.15c9.355,-17.541 26.075,-27.43 48.625,-28.883c-0.688,11.695 -2.793,22.801 -4.567,32.329c-0.746,3.907 -1.455,7.601 -1.941,10.773c-0.066,0.336 -0.344,1.494 -0.561,2.403c-9.723,42.807 -9.016,78.879 2.035,107.65c-47.453,29.3 -81.097,89.195 -85.97,156.131c-0.44,5.71 -0.506,11.514 -0.274,17.292c-50.059,35.647 -71.458,86.077 -62.002,146.537c13.796,88.23 77.118,134.254 173.778,126.334c32.967,-2.698 139.331,-25.034 228.344,-44.2l16.651,-3.595c11.807,-2.481 36.705,1.144 47.353,12.313c2.953,3.11 5.677,7.431 3.395,16.209c-4.622,17.879 -38.762,24.201 -57.1,27.617c-3.539,0.642 -6.615,1.207 -9.355,1.818c-17.221,3.799 -32.342,16.944 -39.416,34.317c-6.935,16.979 -5.315,35.363 4.521,50.357c20.807,31.811 53.391,29.979 67.794,28.526c-4.793,6.216 -11,14.561 -11.981,25.463c-0.777,8.804 -0.221,14.237 1.074,18.661c-1.172,13.821 1.666,21.604 4.972,28.93c1.5,3.31 1.979,4.44 1.941,8.583c-0.145,8.553 2.269,16.222 6.785,22.323l-2.995,20.776l-8.616,13.536c-5.622,8.778 -3.667,20.327 4.495,26.755a20.161,20.161 0 0 0 21.248,2.358c5.689,5.094 13.949,6.722 21.329,3.624c9.471,-3.964 14.463,-14.399 11.599,-24.273l-4.457,-15.427l3.166,-22.086c5.26,-4.439 9.216,-10.664 11.399,-18.24c1.101,-3.973 1.903,-4.902 4.313,-7.678c5.251,-6.066 10.181,-12.712 13.044,-26.249c2.523,-3.849 4.618,-8.884 6.411,-17.603c2.269,-11.025 -1.776,-20.959 -4.694,-28.212l-0.978,-2.451c8.37,-30.409 -0.553,-49.436 -9.827,-60.159c-1.823,-2.052 -3.761,-3.884 -5.719,-5.608c37.143,-15.818 61.063,-53.165 60.655,-96.665c-0.505,-49.97 -32.418,-90.401 -81.288,-103.097c-79.006,-20.429 -180.434,7.542 -241.018,24.273l-19.735,5.37c-32.143,8.413 -88.535,10.784 -113.29,-10.27c-6.157,-5.238 -14.106,-14.624 -12.086,-35.948c1.018,-10.835 3.318,-20.429 6.917,-28.922c31.921,37.215 78.991,54.937 122.746,43.924c62.359,-15.69 73.278,-58.047 70.321,-78.263c-1.231,-8.536 -7.758,-15.363 -16.222,-16.961c-8.484,-1.594 -17.055,2.357 -21.312,9.844c-10.652,18.619 -36.451,31.615 -60.031,30.209c-19.863,-1.186 -35.805,-12.266 -46.536,-32.197c10.939,-4.21 21.871,-6.951 31.299,-9.283c3.883,-0.956 7.524,-1.844 10.604,-2.72a98.01,98.01 0 0 0 2.427,-0.514c48.84,-10.231 84.016,-28.978 104.971,-55.74c48.853,24.8 114.764,23.377 174.141,-5.064c5.146,-2.469 10.189,-5.298 15.117,-8.379c55.826,25.735 110.228,19.29 158.005,-18.949c69.702,-55.774 78.242,-133.619 23.364,-213.552c-18.725,-27.288 -90.938,-108.517 -151.78,-176.244l-11.374,-12.691c-7.996,-9.016 -17.22,-32.418 -12.818,-47.219c1.211,-4.101 3.637,-8.621 12.39,-10.992c17.798,-4.846 40.249,21.625 52.303,35.848c2.337,2.766 4.334,5.137 6.245,7.235c11.846,13.074 30.758,19.638 49.334,17.176c18.21,-2.415 33.331,-12.978 41.484,-28.962c17.276,-33.846 -0.514,-61.217 -8.922,-73.007c7.775,1.087 18.108,2.336 28.055,-2.246c8.043,-3.688 12.453,-6.873 15.674,-10.202c12.576,-5.835 17.913,-12.164 22.625,-18.673c2.184,-2.942 2.885,-3.943 6.509,-5.944c9.942,-5.498 14.51,-12.778 16.634,-18.482l14.854,-6.395l16.034,0.299c10.401,0.208 19.265,-7.493 20.476,-17.815c0.898,-7.805 -2.827,-15.2 -9.133,-19.289m-550.352,564.555c-6.395,17.59 -45.841,34.8 -73.804,45.281c7.431,-14.08 17.303,-27.317 28.724,-37.963c21.614,-20.156 39.735,-19.617 43.533,-17.585c2.796,4.937 2.422,7.871 1.547,10.267zm29.738,-108.699c-5.646,0.457 -8.141,-1.079 -9.963,-2.864c-13.346,-13.156 -12.539,-56.163 -10.419,-85.962c9.705,12.608 17.638,27.114 22.565,41.946c9.297,28.007 1.267,44.274 -2.183,46.88zm102.753,100.699c-28.229,-8.736 -36.769,-24.739 -36.85,-29.032c2.89,-4.899 5.617,-6.035 8.111,-6.479c18.461,-3.171 52.97,22.508 75.938,41.598c-15.868,0.543 -32.286,-1.467 -47.199,-6.087z" fill="#ff00ff" />
        <path id="svg_2" d="m1214.05267,41.866397l-18.146,-4.034l9.292,-16.606l-13.762,15.094l-29.963,12.878c-2.659,-2.855 -7.15,-4.808 -14.076,-3.093c-18.313,4.567 -18.848,-5.196 -39.187,2.213c-4.168,1.536 -2.766,-2.005 -15.916,2.333c-9.144,2.998 -15.313,18.313 -21.427,19.625c-59.007,12.631 -35.631,62.969 -27.478,72.933c10.117,12.4 1.709,16.647 -2.778,12.19c-6.997,-7.004 -15.661,-18.482 -32.291,-34.861c-56.98,-56.212 -163.124,0.939 -139.122,88.98c22.616,82.917 112.542,164.499 150.14,202.808c34.016,34.662 93.13,129.41 16.052,164.337c-26.202,11.89 -48.683,12.799 -67.828,7.962c26.891,-43.856 25.336,-99.307 -6.433,-132.337c-43.737,-45.437 -75.862,-20.292 -75.862,-20.292c50.893,-0.039 114.815,64.386 62.143,133.408a94.539,94.539 0 0 1 -6.768,7.917c-22.557,-13.36 -38.771,-33.005 -49.775,-43.856c-4.882,-4.837 -49.451,-61.642 -104.848,-60.427c4.853,-58.954 -37.788,-118.886 -96.256,-151.026a137.712,137.712 0 0 0 -23.993,-10.297c-5.728,-44.073 -27.393,-93.837 -94.789,-112.82c-102.664,-28.916 -146.386,47.625 -162.748,92.785c-14.019,38.66 -51.583,212.109 -57.905,240.202c-6.003,26.787 -43.561,74.807 -79.546,45.471c-27.757,-22.599 -10.28,-73.164 -6.073,-92.628c4.521,-20.936 -14.058,-46.567 -39.686,-42.705c-30.712,4.62 -36.465,32.837 -39.986,41.925c-7.431,19.151 -24.768,9.685 -28.256,7.401c-5.26,-3.399 -8.738,-18.744 -17.112,-23.521c-12.022,-6.861 -11.33,-3.118 -15.119,-5.426c-18.442,-11.351 -20.945,-1.905 -37.965,-10.001c-5.307,-2.532 -9.507,-2.284 -12.6,-0.858c-1.035,0.667 -1.731,1.361 -2.707,2.254l-26.835,-17.025l-11.181,-17.063l6.9,17.256l-18.931,1.7l20.214,2.847l26.498,16.802c-1.353,3.977 -0.837,9.42 5.307,14.659c14.344,12.247 6.739,18.359 24.618,30.589c3.671,2.494 -0.032,3.408 11.151,11.565c7.756,5.683 23.802,1.785 28.446,6.012c44.613,40.606 71.943,-7.693 75.293,-20.139c4.177,-15.436 12.549,-11.077 11.534,-4.846c-1.645,9.774 -5.917,23.49 -9.554,46.548c-12.542,79.085 95.747,132.11 153.356,61.325c54.223,-66.66 68.217,-187.285 77.466,-240.146c8.413,-47.837 51.011,-151.081 124.263,-108.749c24.925,14.385 38.734,32.136 45.965,50.501c-51.332,3.667 -95.504,37.241 -103.845,82.325c-11.468,61.973 27.675,73.458 27.675,73.458c-29.693,-41.354 -14.491,-130.819 72.285,-128.199a97.7,97.7 0 0 1 10.374,0.892c2.265,26.109 -4.253,50.739 -6.662,65.979c-1.066,6.556 -19.861,71.153 8.489,115.483c-53.146,21.849 -88.036,83.99 -92.756,148.763c-0.656,8.97 -0.399,17.667 0.601,26.079c-37.683,23.599 -73.868,64.03 -63.043,133.191c16.477,105.375 104.259,113.235 152.147,109.301c40.954,-3.36 214.31,-41.477 242.458,-47.416c26.869,-5.689 86.161,8.455 74.507,53.373c-9.008,34.645 -62.253,39.828 -81.671,44.094c-20.963,4.61 -36.488,32.193 -22.297,53.875c17.008,25.99 45.045,19.464 54.75,18.898c20.543,-1.206 19.128,18.491 18.508,22.617c-0.905,6.207 -13.393,15.758 -14.251,25.322c-1.232,13.783 1.887,11.604 1.359,16.006c-2.651,21.507 6.981,19.808 6.7,38.685c-0.08,5.711 1.802,9.364 4.274,11.583l0.09,-0.099l0.73,0.778l0.723,0.557l0,0.029a9.344,9.344 0 0 0 2.357,1.113l-5.204,36.047l-10.983,17.225l12.938,-13.393l9.322,16.588l-5.689,-19.617l5.26,-36.403c3.985,-0.638 8.349,-3.484 10.444,-10.852c5.162,-18.146 13.885,-13.771 17.539,-35.116c0.76,-4.372 3.097,-1.386 5.884,-14.947c1.959,-9.42 -8.276,-22.392 -6.39,-28.356c18.324,-57.504 -36.974,-62.203 -49.656,-60.091c-15.779,2.638 -15.321,-6.781 -9.207,-8.435c9.568,-2.612 23.807,-4.436 46.278,-10.715c77.111,-21.589 80.208,-142.085 -8.124,-164.964c-83.222,-21.529 -198.695,16.021 -250.586,29.622c-46.987,12.301 -158.584,16.587 -150.62,-67.658c2.694,-28.649 13.057,-48.606 26.75,-62.813c24.728,45.101 73.649,71.273 118.095,60.073c61.166,-15.368 55.277,-55.74 55.277,-55.74c-25.238,44.184 -112.867,67.684 -146.66,-12.3a104.013,104.013 0 0 1 -3.51,-9.798c22.81,-12.954 47.896,-17.271 62.78,-21.431c6.765,-1.878 81.14,-12.785 106.097,-64.221c45.479,32.767 114.696,31.611 171.852,4.189c8.115,-3.867 15.538,-8.435 22.349,-13.465c39.179,20.984 92.263,32.32 146.92,-11.399c83.285,-66.647 46.507,-146.735 19.323,-186.349c-23.274,-33.888 -142.407,-165.425 -161.591,-186.909c-18.219,-20.511 -35.435,-78.968 9.36,-91.158c34.53,-9.398 65.487,34.254 78.85,49.016c14.399,15.872 46.027,15.681 57.83,-7.41c14.123,-27.67 -5.485,-48.776 -10.8,-56.917c-11.243,-17.216 6.543,-25.76 10.43,-27.301c5.826,-2.284 20.327,3.824 29.066,-0.21c12.59,-5.772 9.152,-7.399 13.227,-9.126c19.979,-8.39 13.736,-15.908 30.227,-25.034c4.55,-2.516 6.836,-5.558 7.754,-8.529l-0.166,-0.578c0.73,-2.562 0.646,-4.321 0.276,-5.712l29.432,-12.638l20.388,0.374m-548.113,325.224c0.564,-5.5 1.07,-11.931 1.381,-19.035c28.335,19.338 48.869,50.59 58.48,79.423c13.897,41.902 -1.513,71.388 -18.231,73.294c-55.592,6.365 -45.904,-90.814 -41.63,-133.682zm-80.092,294.455c-5.232,1.801 -11.297,3.993 -17.911,6.684c5.804,-33.809 25.665,-65.504 47.888,-86.245c32.278,-30.103 65.503,-28.371 74.209,-13.961c28.927,47.867 -63.459,79.535 -104.186,93.522zm215.34,-60.771c-42.174,-13.052 -57.151,-42.781 -48.989,-57.478c27.188,-48.908 100.573,15.544 132.945,43.981c4.146,3.654 9.059,7.833 14.688,12.213c-32.23,11.77 -69.625,10.294 -98.644,1.284z" />
    </g>
    <g id="svgGroup" fill="rgba(0, 0, 0, 1)" transform="matrix(3,0,0,3,1600,300)" stroke="rgba(255, 0, 255, 0.8)" stroke-width="1pt" >
        <path d="M 969.238 215.365 L 953.369 34.701 A 0.309 0.309 0 0 0 953.229 34.667 Q 952.393 34.667 950.863 39.138 A 71.206 71.206 0 0 0 950.317 40.804 Q 948.461 46.701 945.726 55.723 A 2876.989 2876.989 0 0 0 945.068 57.894 A 1486.685 1486.685 0 0 0 941.851 68.694 Q 940.173 74.398 938.354 80.729 A 2416.573 2416.573 0 0 0 938.11 81.576 Q 934.326 94.759 930.054 107.699 A 509.952 509.952 0 0 1 924.665 123.205 A 424.199 424.199 0 0 1 921.387 131.869 A 152.15 152.15 0 0 1 918.38 139.041 Q 916.862 142.401 915.36 145.196 A 63.91 63.91 0 0 1 912.72 149.691 Q 909.48 154.689 906.522 156.248 A 6.06 6.06 0 0 1 904.663 156.893 A 3.233 3.233 0 0 1 904.148 156.935 Q 900.761 156.935 897.875 149.638 A 40.577 40.577 0 0 1 897.705 149.203 A 79.724 79.724 0 0 1 895.168 145.111 Q 892.366 140.299 889.132 133.541 A 252.651 252.651 0 0 1 888.916 133.089 A 1578.039 1578.039 0 0 1 883.881 122.408 A 1968.687 1968.687 0 0 1 878.54 110.872 A 4317.906 4317.906 0 0 0 870.026 92.447 A 4805.201 4805.201 0 0 0 867.065 86.092 A 405.82 405.82 0 0 0 859.541 70.786 A 339.66 339.66 0 0 0 854.98 62.288 Q 848.877 51.302 843.018 43.123 A 65.3 65.3 0 0 0 839.403 38.5 Q 835.545 34.028 831.91 31.844 A 19.328 19.328 0 0 0 831.787 31.771 A 380.302 380.302 0 0 0 832.336 51.729 A 498.561 498.561 0 0 0 833.984 73.519 Q 836.182 96.224 838.745 119.539 Q 841.309 142.855 843.506 165.56 A 496.406 496.406 0 0 1 845.154 187.411 A 385.939 385.939 0 0 1 845.703 207.552 Q 846.924 209.994 845.825 212.435 A 8.05 8.05 0 0 1 844.188 214.85 A 7.43 7.43 0 0 1 842.529 216.097 Q 840.332 217.318 837.402 216.585 A 7.055 7.055 0 0 1 834.805 215.288 Q 833.905 214.595 833.06 213.577 A 16.373 16.373 0 0 1 832.031 212.191 A 614.302 614.302 0 0 1 827.148 162.386 A 93327.498 93327.498 0 0 1 824.219 111.361 Q 822.754 85.726 820.679 60.335 A 591.874 591.874 0 0 0 814.453 10.287 A 21.91 21.91 0 0 1 814.43 9.626 Q 814.345 5.319 816.162 4.183 Q 818.115 2.962 821.045 2.962 A 46.936 46.936 0 0 1 839.713 13.527 A 54.959 54.959 0 0 1 840.82 14.559 A 101.541 101.541 0 0 1 853.111 28.841 A 118.86 118.86 0 0 1 856.812 34.334 A 185.749 185.749 0 0 1 866.928 52.53 A 212.87 212.87 0 0 1 869.995 59.115 A 6874.552 6874.552 0 0 1 881.836 85.848 A 787.199 787.199 0 0 0 890.625 105.12 A 698.404 698.404 0 0 0 893.555 111.239 Q 899.414 123.324 906.494 132.113 A 2.284 2.284 0 0 0 907.723 131.745 A 3.426 3.426 0 0 0 908.325 131.258 Q 909.18 130.404 910.645 126.62 A 149.706 149.706 0 0 0 911.453 124.476 Q 912.773 120.903 914.771 115.092 A 874.861 874.861 0 0 0 914.795 115.023 Q 916.851 109.041 919.98 99.482 A 2563.965 2563.965 0 0 0 921.997 93.294 Q 926.289 80.071 932.674 60.346 A 84167.125 84167.125 0 0 0 933.35 58.26 Q 938.049 43.741 944.134 24.895 A 77800.221 77800.221 0 0 0 949.951 6.869 Q 950.342 5.697 951.67 4.759 A 8.359 8.359 0 0 1 952.393 4.305 Q 954.346 3.206 956.665 3.206 A 6.516 6.516 0 0 1 960.537 4.487 A 8.302 8.302 0 0 1 960.938 4.793 Q 962.347 5.939 963.121 8.292 A 15.602 15.602 0 0 1 963.623 10.287 A 1728.67 1728.67 0 0 1 965.973 33.388 A 2025.302 2025.302 0 0 1 968.14 57.772 A 4915.419 4915.419 0 0 0 972.656 108.919 A 2128.003 2128.003 0 0 0 978.271 161.776 Q 981.445 188.509 986.084 214.388 A 12.576 12.576 0 0 1 985.713 216.147 Q 985.115 218.184 983.887 219.149 A 5.314 5.314 0 0 1 980.714 220.281 Q 980.252 220.298 979.76 220.25 A 7.952 7.952 0 0 1 979.736 220.247 A 13.354 13.354 0 0 1 977.203 219.729 Q 976.055 219.382 974.837 218.824 A 22.695 22.695 0 0 1 974.487 218.661 A 27.08 27.08 0 0 1 969.238 215.365 Z M 436.523 32.747 L 530.518 9.31 A 5.437 5.437 0 0 1 533.731 11.409 A 7.286 7.286 0 0 1 534.058 11.873 A 7.597 7.597 0 0 1 535.288 16.088 A 8.91 8.91 0 0 1 535.278 16.512 Q 535.156 19.076 533.569 21.517 A 7.963 7.963 0 0 1 530.132 24.433 A 10.655 10.655 0 0 1 528.809 24.935 L 436.279 50.081 Q 436.279 65.951 437.134 81.576 Q 437.988 97.201 439.209 113.314 L 507.08 89.632 L 508.545 88.167 A 11.986 11.986 0 0 1 511.146 86.211 A 14.247 14.247 0 0 1 512.085 85.726 A 8.07 8.07 0 0 1 515.562 84.945 A 8.764 8.764 0 0 1 516.479 84.994 Q 518.634 85.22 520.683 88.186 A 16.947 16.947 0 0 1 520.996 88.656 A 8.469 8.469 0 0 1 519.342 93.602 Q 517.883 95.679 515.137 97.567 A 57.927 57.927 0 0 1 509.472 100.975 Q 506.482 102.562 502.992 104.04 A 102.897 102.897 0 0 1 500.61 105.013 Q 491.943 108.431 481.812 111.483 A 376.25 376.25 0 0 0 472.046 114.565 A 306.54 306.54 0 0 0 463.013 117.708 A 132.272 132.272 0 0 0 456.434 120.307 Q 453.362 121.623 450.757 122.959 A 67.21 67.21 0 0 0 448.486 124.178 A 21.83 21.83 0 0 0 446.097 125.717 Q 442.627 128.318 442.627 131.136 L 440.918 195.345 A 10.141 10.141 0 0 0 443.658 196.454 Q 446.187 197.095 449.654 196.867 A 33.507 33.507 0 0 0 451.538 196.688 Q 458.034 195.89 465.913 193.709 A 141.762 141.762 0 0 0 467.041 193.392 Q 475.586 190.951 485.107 187.411 A 2139.269 2139.269 0 0 1 498.978 182.306 A 1885.415 1885.415 0 0 1 503.418 180.697 A 662.502 662.502 0 0 1 511.871 177.706 A 508.958 508.958 0 0 1 519.653 175.081 Q 527.1 172.64 531.738 172.396 Q 533.936 172.64 535.645 173.983 A 8.963 8.963 0 0 1 537.071 175.37 A 7.013 7.013 0 0 1 538.086 177.035 A 4.783 4.783 0 0 1 538.485 178.935 Q 538.485 179.742 538.208 180.575 A 3.929 3.929 0 0 1 537.232 182.106 Q 536.755 182.585 536.08 183.006 A 10.067 10.067 0 0 1 534.912 183.626 Q 528.366 186.48 519.974 189.795 A 751.393 751.393 0 0 1 511.963 192.904 A 684.714 684.714 0 0 1 484.253 202.791 A 466.568 466.568 0 0 1 463.31 209.246 A 413.158 413.158 0 0 1 456.543 211.092 Q 443.115 214.632 433.838 215.365 A 24.841 24.841 0 0 1 431.647 214.957 Q 430.555 214.699 429.647 214.358 A 11.17 11.17 0 0 1 428.345 213.778 A 11.049 11.049 0 0 1 426.917 212.86 Q 425.493 211.796 423.83 210.015 A 38.904 38.904 0 0 1 423.584 209.749 Q 423.584 186.312 424.438 161.898 A 1229.406 1229.406 0 0 0 425.186 118.893 A 1256.451 1256.451 0 0 0 425.171 112.703 A 657.29 657.29 0 0 0 423.096 63.509 A 332.704 332.704 0 0 0 415.771 15.658 Q 415.771 14.503 416.645 12.804 A 14.415 14.415 0 0 1 416.748 12.606 Q 417.725 10.775 419.189 9.31 A 11.528 11.528 0 0 1 422.485 6.991 A 4.798 4.798 0 0 1 424.048 6.553 Q 424.948 6.463 425.876 6.737 A 5.754 5.754 0 0 1 426.27 6.869 A 9.498 9.498 0 0 1 429.962 9.47 A 13.367 13.367 0 0 1 431.519 11.629 A 30.615 30.615 0 0 1 434.692 19.32 A 53.375 53.375 0 0 1 435.78 24.365 A 44.492 44.492 0 0 1 436.157 27.254 A 141.492 141.492 0 0 1 436.317 29.017 Q 436.523 31.466 436.523 32.747 Z M 1495.361 32.747 L 1589.355 9.31 A 5.437 5.437 0 0 1 1592.569 11.409 A 7.286 7.286 0 0 1 1592.896 11.873 A 7.597 7.597 0 0 1 1594.126 16.088 A 8.91 8.91 0 0 1 1594.116 16.512 Q 1593.994 19.076 1592.407 21.517 A 7.963 7.963 0 0 1 1588.97 24.433 A 10.655 10.655 0 0 1 1587.646 24.935 L 1495.117 50.081 Q 1495.117 65.951 1495.972 81.576 Q 1496.826 97.201 1498.047 113.314 L 1565.918 89.632 L 1567.383 88.167 A 11.986 11.986 0 0 1 1569.984 86.211 A 14.247 14.247 0 0 1 1570.923 85.726 A 8.07 8.07 0 0 1 1574.399 84.945 A 8.764 8.764 0 0 1 1575.317 84.994 Q 1577.472 85.22 1579.521 88.186 A 16.947 16.947 0 0 1 1579.834 88.656 A 8.469 8.469 0 0 1 1578.18 93.602 Q 1576.721 95.679 1573.975 97.567 A 57.927 57.927 0 0 1 1568.31 100.975 Q 1565.32 102.562 1561.83 104.04 A 102.897 102.897 0 0 1 1559.448 105.013 Q 1550.781 108.431 1540.649 111.483 A 376.25 376.25 0 0 0 1530.884 114.565 A 306.54 306.54 0 0 0 1521.851 117.708 A 132.272 132.272 0 0 0 1515.272 120.307 Q 1512.2 121.623 1509.595 122.959 A 67.21 67.21 0 0 0 1507.324 124.178 A 21.83 21.83 0 0 0 1504.935 125.717 Q 1501.465 128.318 1501.465 131.136 L 1499.756 195.345 A 10.141 10.141 0 0 0 1502.496 196.454 Q 1505.025 197.095 1508.492 196.867 A 33.507 33.507 0 0 0 1510.376 196.688 Q 1516.872 195.89 1524.751 193.709 A 141.762 141.762 0 0 0 1525.879 193.392 Q 1534.424 190.951 1543.945 187.411 A 2139.269 2139.269 0 0 1 1557.816 182.306 A 1885.415 1885.415 0 0 1 1562.256 180.697 A 662.502 662.502 0 0 1 1570.709 177.706 A 508.958 508.958 0 0 1 1578.491 175.081 Q 1585.938 172.64 1590.576 172.396 Q 1592.773 172.64 1594.482 173.983 A 8.963 8.963 0 0 1 1595.909 175.37 A 7.013 7.013 0 0 1 1596.924 177.035 A 4.783 4.783 0 0 1 1597.323 178.935 Q 1597.323 179.742 1597.046 180.575 A 3.929 3.929 0 0 1 1596.07 182.106 Q 1595.592 182.585 1594.918 183.006 A 10.067 10.067 0 0 1 1593.75 183.626 Q 1587.204 186.48 1578.812 189.795 A 751.393 751.393 0 0 1 1570.801 192.904 A 684.714 684.714 0 0 1 1543.091 202.791 A 466.568 466.568 0 0 1 1522.148 209.246 A 413.158 413.158 0 0 1 1515.381 211.092 Q 1501.953 214.632 1492.676 215.365 A 24.841 24.841 0 0 1 1490.485 214.957 Q 1489.393 214.699 1488.485 214.358 A 11.17 11.17 0 0 1 1487.183 213.778 A 11.049 11.049 0 0 1 1485.755 212.86 Q 1484.331 211.796 1482.668 210.015 A 38.904 38.904 0 0 1 1482.422 209.749 Q 1482.422 186.312 1483.276 161.898 A 1229.406 1229.406 0 0 0 1484.024 118.893 A 1256.451 1256.451 0 0 0 1484.009 112.703 A 657.29 657.29 0 0 0 1481.934 63.509 A 332.704 332.704 0 0 0 1474.609 15.658 Q 1474.609 14.503 1475.482 12.804 A 14.415 14.415 0 0 1 1475.586 12.606 Q 1476.563 10.775 1478.027 9.31 A 11.528 11.528 0 0 1 1481.323 6.991 A 4.798 4.798 0 0 1 1482.885 6.553 Q 1483.786 6.463 1484.714 6.737 A 5.754 5.754 0 0 1 1485.107 6.869 A 9.498 9.498 0 0 1 1488.8 9.47 A 13.367 13.367 0 0 1 1490.356 11.629 A 30.615 30.615 0 0 1 1493.53 19.32 A 53.375 53.375 0 0 1 1494.617 24.365 A 44.492 44.492 0 0 1 1494.995 27.254 A 141.492 141.492 0 0 1 1495.155 29.017 Q 1495.361 31.466 1495.361 32.747 Z M 284.18 196.81 L 387.695 21.273 L 286.865 22.738 A 10.578 10.578 0 0 1 285.126 22.054 Q 283.899 21.433 283.081 20.54 Q 281.738 19.076 281.372 17.245 A 6.144 6.144 0 0 1 281.25 16.037 A 5.869 5.869 0 0 1 281.738 13.704 A 4.488 4.488 0 0 1 284.18 11.263 A 0.103 0.103 0 0 1 284.258 11.2 Q 284.724 11.007 287.966 10.746 A 168.965 168.965 0 0 1 289.185 10.653 A 257.473 257.473 0 0 1 291.901 10.47 Q 294.922 10.281 298.852 10.092 A 827.019 827.019 0 0 1 302.612 9.92 A 780.147 780.147 0 0 1 310.992 9.604 Q 316.013 9.44 321.655 9.31 Q 332.275 9.066 343.384 8.7 Q 354.492 8.333 365.356 8.211 A 7761.922 7761.922 0 0 0 375.032 8.097 Q 379.577 8.04 383.621 7.983 A 4528.99 4528.99 0 0 0 384.766 7.967 Q 393.311 7.845 398.804 7.723 Q 403.988 7.608 404.714 7.601 A 8.249 8.249 0 0 1 404.785 7.601 L 405.762 19.076 L 300.781 199.74 L 406.25 199.74 A 6.583 6.583 0 0 1 409.546 202.913 Q 410.37 204.561 410.37 206.278 A 7.377 7.377 0 0 1 410.278 207.43 A 7.514 7.514 0 0 1 408.325 211.458 Q 406.774 213.129 403.94 213.167 A 9.893 9.893 0 0 1 403.809 213.167 L 291.016 212.923 A 6.689 6.689 0 0 1 289.415 212.744 A 4.293 4.293 0 0 1 286.987 211.214 A 10.099 10.099 0 0 1 285.54 208.656 A 12.845 12.845 0 0 1 285.034 207.064 A 25.003 25.003 0 0 1 284.426 203.534 A 29.628 29.628 0 0 1 284.302 201.815 A 142.767 142.767 0 0 1 284.218 199.475 Q 284.189 198.403 284.182 197.44 A 83.821 83.821 0 0 1 284.18 196.81 Z M 1235.84 30.306 L 1225.342 26.888 Q 1220.325 26.888 1214.235 29.28 A 51.207 51.207 0 0 0 1211.548 30.428 A 75.267 75.267 0 0 0 1202.13 35.649 A 94.606 94.606 0 0 0 1196.045 39.95 A 134.924 134.924 0 0 0 1183.826 50.568 A 153.569 153.569 0 0 0 1180.786 53.621 A 132.909 132.909 0 0 0 1169.25 67.2 A 120.349 120.349 0 0 0 1167.603 69.491 Q 1161.865 77.669 1158.325 85.848 A 50.614 50.614 0 0 0 1156.168 91.759 Q 1155.228 94.98 1154.927 97.916 A 26.488 26.488 0 0 0 1154.785 100.619 A 20.913 20.913 0 0 0 1155.741 107.079 A 17.162 17.162 0 0 0 1160.156 114.168 A 33.268 33.268 0 0 0 1166.828 119.16 Q 1169.986 120.982 1173.804 122.403 A 55.448 55.448 0 0 0 1174.316 122.591 A 86.048 86.048 0 0 0 1183.746 125.368 Q 1188.782 126.558 1194.458 127.352 Q 1205.811 128.939 1217.529 130.16 Q 1229.248 131.38 1240.601 132.845 Q 1251.199 134.213 1259.564 136.538 A 96.822 96.822 0 0 1 1260.742 136.873 Q 1268.369 139.098 1273.422 142.793 A 27.752 27.752 0 0 1 1274.902 143.954 A 14.733 14.733 0 0 1 1280.234 154.76 A 20.272 20.272 0 0 1 1280.273 156.038 Q 1280.273 162.966 1275.031 169.894 A 37.262 37.262 0 0 1 1274.414 170.687 Q 1268.738 177.782 1259.625 184.305 A 102.943 102.943 0 0 1 1259.033 184.725 A 128.604 128.604 0 0 1 1246.737 192.353 A 162.383 162.383 0 0 1 1237.183 197.176 A 217.171 217.171 0 0 1 1212.402 206.942 A 200.094 200.094 0 0 1 1194.069 211.954 A 176.876 176.876 0 0 1 1188.11 213.167 Q 1177.454 215.145 1169.467 215.145 A 61.006 61.006 0 0 1 1167.725 215.12 A 5.645 5.645 0 0 1 1163.628 213.464 A 6.723 6.723 0 0 1 1163.574 213.412 Q 1161.865 211.703 1162.842 207.796 A 1.332 1.332 0 0 1 1163.285 207.095 Q 1164.607 205.834 1169.8 204.134 Q 1176.434 201.963 1186.286 198.958 A 1527.001 1527.001 0 0 1 1186.523 198.885 A 881.198 881.198 0 0 0 1197.083 195.589 A 1198.913 1198.913 0 0 0 1208.74 191.805 A 239.692 239.692 0 0 0 1232.3 182.65 A 140.231 140.231 0 0 0 1245.584 175.812 A 115.961 115.961 0 0 0 1252.686 171.297 Q 1260.86 165.664 1265.036 158.931 A 30.872 30.872 0 0 0 1265.869 157.503 A 5.253 5.253 0 0 0 1264.074 153.558 Q 1263.265 152.798 1262.093 152.154 A 15.53 15.53 0 0 0 1260.498 151.4 A 44.311 44.311 0 0 0 1256.196 149.915 Q 1254.082 149.296 1251.618 148.751 A 103.212 103.212 0 0 0 1246.338 147.738 A 214.919 214.919 0 0 0 1237.562 146.472 Q 1232.944 145.897 1227.799 145.428 A 356.512 356.512 0 0 0 1226.318 145.296 A 408.322 408.322 0 0 1 1204.725 142.821 A 446.414 446.414 0 0 1 1203.247 142.611 A 257.024 257.024 0 0 1 1180.176 138.216 A 90.16 90.16 0 0 1 1168.314 134.538 A 72.598 72.598 0 0 1 1160.156 130.77 Q 1151.367 126.009 1145.996 118.807 A 26.576 26.576 0 0 1 1141.231 107.681 A 36.708 36.708 0 0 1 1140.625 100.863 A 50.225 50.225 0 0 1 1143.084 85.583 A 61.866 61.866 0 0 1 1145.386 79.5 A 100.798 100.798 0 0 1 1155.137 62.249 A 115.392 115.392 0 0 1 1157.959 58.382 Q 1165.771 48.128 1175.903 39.095 A 153.969 153.969 0 0 1 1197.021 23.226 A 125.411 125.411 0 0 1 1210.659 15.825 A 104.242 104.242 0 0 1 1218.75 12.484 A 69.957 69.957 0 0 1 1228.499 9.68 A 50.81 50.81 0 0 1 1238.77 8.578 A 108.961 108.961 0 0 0 1242.528 8.51 A 125.764 125.764 0 0 0 1243.896 8.455 A 23.127 23.127 0 0 1 1244.946 8.431 Q 1245.972 8.431 1246.899 8.529 A 14.136 14.136 0 0 1 1248.657 8.822 A 6.225 6.225 0 0 1 1252.075 10.897 Q 1253.418 12.484 1253.418 15.658 A 18.674 18.674 0 0 1 1252.966 19.909 Q 1252.289 22.805 1250.597 24.83 A 10.759 10.759 0 0 1 1248.291 26.888 A 20.018 20.018 0 0 1 1240.616 29.902 A 27.106 27.106 0 0 1 1235.84 30.306 Z M 1.953 215.12 L 0 10.775 Q 0.732 9.066 3.052 8.089 Q 5.371 7.113 7.935 7.113 A 8.287 8.287 0 0 1 10.66 7.549 A 7.438 7.438 0 0 1 12.451 8.455 A 5.379 5.379 0 0 1 14.352 10.827 Q 14.694 11.622 14.87 12.597 A 10.186 10.186 0 0 1 14.893 12.728 L 16.357 26.156 A 34.178 34.178 0 0 0 20.077 25.131 Q 21.933 24.514 24 23.641 A 75.947 75.947 0 0 0 27.344 22.127 A 117.349 117.349 0 0 1 33.751 19.293 Q 37.153 17.901 41.005 16.536 A 195.324 195.324 0 0 1 42.114 16.146 A 115.233 115.233 0 0 1 51.947 13.234 A 151.017 151.017 0 0 1 61.035 11.263 A 66.803 66.803 0 0 1 70.07 10.235 Q 75.615 9.97 81.728 10.5 A 104.946 104.946 0 0 1 84.473 10.775 A 192.391 192.391 0 0 1 93.796 12.819 Q 103.651 15.257 109.93 18.172 A 39.988 39.988 0 0 1 113.525 20.052 A 32.796 32.796 0 0 1 117.623 22.895 Q 122.545 26.95 123.133 31.572 A 9.936 9.936 0 0 1 123.169 31.893 A 12.838 12.838 0 0 1 123.225 33.099 Q 123.225 37.762 119.895 42.919 A 34.641 34.641 0 0 1 117.798 45.809 A 71.38 71.38 0 0 1 111.793 52.348 Q 107.437 56.566 101.807 60.824 A 283.091 283.091 0 0 1 89.773 69.415 A 358.631 358.631 0 0 1 79.346 76.204 A 2067.526 2067.526 0 0 1 56.536 90.316 A 1891.302 1891.302 0 0 1 55.054 91.219 Q 43.213 98.421 33.081 104.891 A 134.72 134.72 0 0 0 27.237 108.827 Q 21.537 112.903 18.052 116.493 A 39.276 39.276 0 0 0 17.822 116.732 L 132.324 185.579 A 9.951 9.951 0 0 1 130.925 190.606 A 14.395 14.395 0 0 1 129.15 193.026 A 10.644 10.644 0 0 1 127.048 194.86 Q 124.666 196.412 121.826 196.078 L 14.16 134.066 L 14.16 215.12 A 30.75 30.75 0 0 1 12.496 216.419 Q 10.614 217.779 9.155 218.294 Q 7.25 218.967 6.065 218.816 A 2.941 2.941 0 0 1 5.859 218.783 Q 4.639 218.538 3.662 217.44 Q 2.686 216.341 1.953 215.12 Z M 553.467 215.12 L 551.514 10.775 Q 552.246 9.066 554.565 8.089 Q 556.885 7.113 559.448 7.113 A 8.287 8.287 0 0 1 562.174 7.549 A 7.438 7.438 0 0 1 563.965 8.455 A 5.379 5.379 0 0 1 565.866 10.827 Q 566.208 11.622 566.384 12.597 A 10.186 10.186 0 0 1 566.406 12.728 L 567.871 26.156 A 34.178 34.178 0 0 0 571.59 25.131 Q 573.447 24.514 575.514 23.641 A 75.947 75.947 0 0 0 578.857 22.127 A 117.349 117.349 0 0 1 585.264 19.293 Q 588.667 17.901 592.518 16.536 A 195.324 195.324 0 0 1 593.628 16.146 A 115.233 115.233 0 0 1 603.461 13.234 A 151.017 151.017 0 0 1 612.549 11.263 A 66.803 66.803 0 0 1 621.584 10.235 Q 627.129 9.97 633.242 10.5 A 104.946 104.946 0 0 1 635.986 10.775 A 192.391 192.391 0 0 1 645.309 12.819 Q 655.165 15.257 661.443 18.172 A 39.988 39.988 0 0 1 665.039 20.052 A 32.796 32.796 0 0 1 669.137 22.895 Q 674.059 26.95 674.647 31.572 A 9.936 9.936 0 0 1 674.683 31.893 A 12.838 12.838 0 0 1 674.739 33.099 Q 674.739 37.762 671.409 42.919 A 34.641 34.641 0 0 1 669.312 45.809 A 71.38 71.38 0 0 1 663.307 52.348 Q 658.951 56.566 653.32 60.824 A 283.091 283.091 0 0 1 641.287 69.415 A 358.631 358.631 0 0 1 630.859 76.204 A 2067.526 2067.526 0 0 1 608.05 90.316 A 1891.302 1891.302 0 0 1 606.567 91.219 Q 594.727 98.421 584.595 104.891 A 134.72 134.72 0 0 0 578.751 108.827 Q 573.051 112.903 569.566 116.493 A 39.276 39.276 0 0 0 569.336 116.732 L 683.838 185.579 A 9.951 9.951 0 0 1 682.438 190.606 A 14.395 14.395 0 0 1 680.664 193.026 A 10.644 10.644 0 0 1 678.562 194.86 Q 676.179 196.412 673.34 196.078 L 565.674 134.066 L 565.674 215.12 A 30.75 30.75 0 0 1 564.01 216.419 Q 562.128 217.779 560.669 218.294 Q 558.764 218.967 557.579 218.816 A 2.941 2.941 0 0 1 557.373 218.783 Q 556.152 218.538 555.176 217.44 Q 554.199 216.341 553.467 215.12 Z M 1612.305 215.12 L 1610.352 10.775 Q 1611.084 9.066 1613.403 8.089 Q 1615.723 7.113 1618.286 7.113 A 8.287 8.287 0 0 1 1621.012 7.549 A 7.438 7.438 0 0 1 1622.803 8.455 A 5.379 5.379 0 0 1 1624.704 10.827 Q 1625.046 11.622 1625.221 12.597 A 10.186 10.186 0 0 1 1625.244 12.728 L 1626.709 26.156 A 34.178 34.178 0 0 0 1630.428 25.131 Q 1632.284 24.514 1634.352 23.641 A 75.947 75.947 0 0 0 1637.695 22.127 A 117.349 117.349 0 0 1 1644.102 19.293 Q 1647.505 17.901 1651.356 16.536 A 195.324 195.324 0 0 1 1652.466 16.146 A 115.233 115.233 0 0 1 1662.299 13.234 A 151.017 151.017 0 0 1 1671.387 11.263 A 66.803 66.803 0 0 1 1680.422 10.235 Q 1685.967 9.97 1692.08 10.5 A 104.946 104.946 0 0 1 1694.824 10.775 A 192.391 192.391 0 0 1 1704.147 12.819 Q 1714.003 15.257 1720.281 18.172 A 39.988 39.988 0 0 1 1723.877 20.052 A 32.796 32.796 0 0 1 1727.975 22.895 Q 1732.897 26.95 1733.485 31.572 A 9.936 9.936 0 0 1 1733.521 31.893 A 12.838 12.838 0 0 1 1733.577 33.099 Q 1733.577 37.762 1730.247 42.919 A 34.641 34.641 0 0 1 1728.149 45.809 A 71.38 71.38 0 0 1 1722.145 52.348 Q 1717.789 56.566 1712.158 60.824 A 283.091 283.091 0 0 1 1700.125 69.415 A 358.631 358.631 0 0 1 1689.697 76.204 A 2067.526 2067.526 0 0 1 1666.888 90.316 A 1891.302 1891.302 0 0 1 1665.405 91.219 Q 1653.564 98.421 1643.433 104.891 A 134.72 134.72 0 0 0 1637.589 108.827 Q 1631.888 112.903 1628.403 116.493 A 39.276 39.276 0 0 0 1628.174 116.732 L 1742.676 185.579 A 9.951 9.951 0 0 1 1741.276 190.606 A 14.395 14.395 0 0 1 1739.502 193.026 A 10.644 10.644 0 0 1 1737.4 194.86 Q 1735.017 196.412 1732.178 196.078 L 1624.512 134.066 L 1624.512 215.12 A 30.75 30.75 0 0 1 1622.848 216.419 Q 1620.966 217.779 1619.507 218.294 Q 1617.602 218.967 1616.417 218.816 A 2.941 2.941 0 0 1 1616.211 218.783 Q 1614.99 218.538 1614.014 217.44 Q 1613.037 216.341 1612.305 215.12 Z M 1281.982 17.611 L 1355.469 13.216 A 16.407 16.407 0 0 1 1355.621 12.537 Q 1355.81 11.766 1356.129 10.703 A 73.418 73.418 0 0 1 1356.445 9.676 A 24.439 24.439 0 0 1 1358.398 5.16 A 15.536 15.536 0 0 1 1360.604 2.099 A 14.101 14.101 0 0 1 1361.328 1.375 Q 1362.809 0 1364.657 0 A 5.225 5.225 0 0 1 1365.234 0.033 A 9.807 9.807 0 0 1 1367.426 0.439 A 6.779 6.779 0 0 1 1370.239 2.108 A 19.933 19.933 0 0 1 1372.812 5.244 A 18.066 18.066 0 0 1 1373.291 6.014 A 406.817 406.817 0 0 1 1374.451 7.998 A 300.922 300.922 0 0 1 1375.488 9.798 A 5.329 5.329 0 0 0 1376.129 10.704 Q 1376.911 11.582 1377.93 11.751 Q 1417.236 11.751 1458.74 10.287 A 19.594 19.594 0 0 1 1459.101 10.291 Q 1459.991 10.308 1462.249 10.393 A 663.773 663.773 0 0 1 1462.646 10.409 A 81.122 81.122 0 0 1 1464.069 10.475 Q 1466.023 10.585 1466.954 10.758 A 6.66 6.66 0 0 1 1467.041 10.775 Q 1468.402 14.632 1464.597 16.908 A 10.766 10.766 0 0 1 1463.989 17.245 Q 1459.674 19.46 1451.794 20.673 A 85.387 85.387 0 0 1 1451.05 20.785 A 163.382 163.382 0 0 1 1442.644 21.768 Q 1438.223 22.176 1433.301 22.425 A 270.522 270.522 0 0 1 1431.885 22.494 Q 1421.143 22.982 1410.522 23.226 A 760.137 760.137 0 0 0 1400.208 23.531 A 634.019 634.019 0 0 0 1390.503 23.958 A 206.786 206.786 0 0 0 1385.022 24.311 Q 1380.015 24.705 1376.533 25.284 A 53.558 53.558 0 0 0 1375.732 25.423 A 187.852 187.852 0 0 0 1373.959 42.055 A 228.931 228.931 0 0 0 1373.535 52.767 A 712.676 712.676 0 0 0 1373.438 64.642 A 785.408 785.408 0 0 0 1373.657 83.04 A 856.415 856.415 0 0 0 1375 114.779 A 5390.252 5390.252 0 0 1 1376.831 146.517 A 808.44 808.44 0 0 1 1377.859 173.113 A 731.854 731.854 0 0 1 1377.93 176.79 A 346.966 346.966 0 0 1 1377.979 182.572 Q 1377.979 190.413 1377.609 197.664 A 250.457 250.457 0 0 1 1377.197 204.134 Q 1378.662 211.947 1375.854 213.045 Q 1373.047 214.144 1365.234 212.923 Q 1363.739 205.259 1362.816 195.091 A 291.552 291.552 0 0 1 1362.305 188.631 A 709.148 709.148 0 0 1 1361.45 173.739 A 895.76 895.76 0 0 1 1360.84 157.625 A 1158.112 1158.112 0 0 1 1360.382 131.853 A 1285.55 1285.55 0 0 1 1360.352 122.957 A 2505.538 2505.538 0 0 0 1360.107 87.679 A 3751.498 3751.498 0 0 0 1359.833 70.803 A 3174.215 3174.215 0 0 0 1359.497 54.842 A 440.035 440.035 0 0 0 1359.013 41.955 Q 1358.701 36.068 1358.237 30.811 A 253.82 253.82 0 0 0 1357.91 27.376 A 88.002 88.002 0 0 0 1346.708 26.658 A 87.682 87.682 0 0 0 1338.867 27.01 Q 1329.346 27.865 1319.946 29.085 A 1335.806 1335.806 0 0 1 1301.025 31.405 A 99.6 99.6 0 0 1 1289.6 32.064 A 99.28 99.28 0 0 1 1281.982 31.771 A 22.228 22.228 0 0 1 1277.885 30.993 A 25.954 25.954 0 0 1 1276.489 30.55 A 3.277 3.277 0 0 1 1274.308 28.242 Q 1273.974 27.088 1274.17 25.423 Q 1274.414 22.738 1276.855 20.052 A 9.724 9.724 0 0 1 1278.256 18.767 Q 1279.847 17.59 1281.537 17.59 A 4.923 4.923 0 0 1 1281.982 17.611 Z M 199.707 8.089 L 247.803 125.033 L 272.705 117.464 A 9.776 9.776 0 0 1 275.381 117.815 A 7.821 7.821 0 0 1 278.076 119.173 A 7.083 7.083 0 0 1 279.495 120.62 A 5.49 5.49 0 0 1 280.518 123.324 A 5.494 5.494 0 0 1 280.545 123.871 Q 280.545 125.71 279.338 127.751 A 13.267 13.267 0 0 1 278.809 128.573 A 9.307 9.307 0 0 1 276.689 130.709 Q 274.834 132.088 271.973 133.089 Q 270.66 133.581 268.797 134.129 A 89.771 89.771 0 0 1 266.846 134.676 Q 263.672 135.531 260.498 136.263 Q 258.068 136.824 256.211 137.385 A 39.855 39.855 0 0 0 255.127 137.728 A 11.848 11.848 0 0 0 254.38 138.003 Q 252.93 138.598 252.93 139.193 L 280.029 211.458 A 19.258 19.258 0 0 0 279.663 212.46 Q 279.51 212.913 279.358 213.425 A 39.315 39.315 0 0 0 279.053 214.51 Q 278.564 216.341 277.1 217.44 Q 275.795 218.418 273.328 218.235 A 12.51 12.51 0 0 1 272.705 218.172 A 10.332 10.332 0 0 1 270.864 217.744 Q 268.976 217.141 266.421 215.771 A 55.785 55.785 0 0 1 264.404 214.632 L 236.328 142.855 Q 232.803 143.862 228.125 144.811 A 186.167 186.167 0 0 1 223.633 145.662 A 1024.269 1024.269 0 0 1 211.868 147.677 A 1170.47 1170.47 0 0 1 207.764 148.348 A 317.09 317.09 0 0 0 191.04 151.522 A 117.317 117.317 0 0 0 181.036 154.144 A 96.592 96.592 0 0 0 175.537 156.038 A 54.465 54.465 0 0 0 169.382 158.798 A 39.956 39.956 0 0 0 163.574 162.508 A 17.184 17.184 0 0 0 160.099 166.053 A 13.722 13.722 0 0 0 157.715 171.663 Q 157.265 174.811 156.091 181.685 A 1201.708 1201.708 0 0 1 155.884 182.894 Q 154.541 190.706 153.32 198.519 A 782.79 782.79 0 0 1 151.733 208.162 A 980.876 980.876 0 0 1 149.902 218.538 A 17.304 17.304 0 0 1 148.185 220.057 Q 145.859 221.834 143.791 221.834 A 4.726 4.726 0 0 1 141.968 221.468 A 17.487 17.487 0 0 1 139.812 220.374 Q 137.543 219.039 134.645 216.669 A 79.685 79.685 0 0 1 132.813 215.12 A 730.796 730.796 0 0 0 133.797 211.855 Q 135.468 206.27 138.306 196.566 Q 142.09 183.626 148.193 159.578 A 3039.559 3039.559 0 0 0 151.421 146.738 Q 156.186 127.614 162.327 102.085 A 8874.217 8874.217 0 0 0 163.208 98.421 Q 169.334 72.909 176.903 39.318 A 7532.96 7532.96 0 0 0 184.082 7.113 A 7.266 7.266 0 0 1 188.232 3.817 A 12.34 12.34 0 0 1 191.992 3.219 A 11.913 11.913 0 0 1 193.604 3.328 A 11.424 11.424 0 0 1 195.898 3.874 A 8.627 8.627 0 0 1 198.12 5.037 Q 199.951 6.38 199.707 8.089 Z M 1057.373 8.089 L 1105.469 125.033 L 1130.371 117.464 A 9.776 9.776 0 0 1 1133.047 117.815 A 7.821 7.821 0 0 1 1135.742 119.173 A 7.083 7.083 0 0 1 1137.161 120.62 A 5.49 5.49 0 0 1 1138.184 123.324 A 5.494 5.494 0 0 1 1138.211 123.871 Q 1138.211 125.71 1137.004 127.751 A 13.267 13.267 0 0 1 1136.475 128.573 A 9.307 9.307 0 0 1 1134.355 130.709 Q 1132.5 132.088 1129.639 133.089 Q 1128.326 133.581 1126.463 134.129 A 89.771 89.771 0 0 1 1124.512 134.676 Q 1121.338 135.531 1118.164 136.263 Q 1115.734 136.824 1113.877 137.385 A 39.855 39.855 0 0 0 1112.793 137.728 A 11.848 11.848 0 0 0 1112.046 138.003 Q 1110.596 138.598 1110.596 139.193 L 1137.695 211.458 A 19.258 19.258 0 0 0 1137.329 212.46 Q 1137.177 212.913 1137.024 213.425 A 39.315 39.315 0 0 0 1136.719 214.51 Q 1136.23 216.341 1134.766 217.44 Q 1133.461 218.418 1130.994 218.235 A 12.51 12.51 0 0 1 1130.371 218.172 A 10.332 10.332 0 0 1 1128.53 217.744 Q 1126.642 217.141 1124.087 215.771 A 55.785 55.785 0 0 1 1122.07 214.632 L 1093.994 142.855 Q 1090.469 143.862 1085.791 144.811 A 186.167 186.167 0 0 1 1081.299 145.662 A 1024.269 1024.269 0 0 1 1069.534 147.677 A 1170.47 1170.47 0 0 1 1065.43 148.348 A 317.09 317.09 0 0 0 1048.706 151.522 A 117.317 117.317 0 0 0 1038.702 154.144 A 96.592 96.592 0 0 0 1033.203 156.038 A 54.465 54.465 0 0 0 1027.048 158.798 A 39.956 39.956 0 0 0 1021.24 162.508 A 17.184 17.184 0 0 0 1017.765 166.053 A 13.722 13.722 0 0 0 1015.381 171.663 Q 1014.931 174.811 1013.757 181.685 A 1201.708 1201.708 0 0 1 1013.55 182.894 Q 1012.207 190.706 1010.986 198.519 A 782.79 782.79 0 0 1 1009.399 208.162 A 980.876 980.876 0 0 1 1007.568 218.538 A 17.304 17.304 0 0 1 1005.851 220.057 Q 1003.525 221.834 1001.457 221.834 A 4.726 4.726 0 0 1 999.634 221.468 A 17.487 17.487 0 0 1 997.478 220.374 Q 995.209 219.039 992.311 216.669 A 79.685 79.685 0 0 1 990.479 215.12 A 730.796 730.796 0 0 0 991.463 211.855 Q 993.134 206.27 995.972 196.566 Q 999.756 183.626 1005.859 159.578 A 3039.559 3039.559 0 0 0 1009.087 146.738 Q 1013.852 127.614 1019.993 102.085 A 8874.217 8874.217 0 0 0 1020.874 98.421 Q 1027 72.909 1034.569 39.318 A 7532.96 7532.96 0 0 0 1041.748 7.113 A 7.266 7.266 0 0 1 1045.898 3.817 A 12.34 12.34 0 0 1 1049.658 3.219 A 11.913 11.913 0 0 1 1051.27 3.328 A 11.424 11.424 0 0 1 1053.564 3.874 A 8.627 8.627 0 0 1 1055.786 5.037 Q 1057.617 6.38 1057.373 8.089 Z M 228.516 127.718 L 194.092 33.968 L 168.213 142.611 Q 172.363 141.146 179.688 139.437 A 3222.811 3222.811 0 0 1 187.317 137.667 A 4053.719 4053.719 0 0 1 195.557 135.775 Q 204.102 133.822 212.769 131.869 A 236.41 236.41 0 0 0 221.039 129.854 A 180.228 180.228 0 0 0 228.516 127.718 Z M 1086.182 127.718 L 1051.758 33.968 L 1025.879 142.611 Q 1030.029 141.146 1037.354 139.437 A 3222.811 3222.811 0 0 1 1044.983 137.667 A 4053.719 4053.719 0 0 1 1053.223 135.775 Q 1061.768 133.822 1070.435 131.869 A 236.41 236.41 0 0 0 1078.705 129.854 A 180.228 180.228 0 0 0 1086.182 127.718 Z M 16.357 44.466 A 136.084 136.084 0 0 0 16.026 48.403 Q 15.902 50.158 15.801 52.103 A 260.211 260.211 0 0 0 15.625 56.185 A 373.488 373.488 0 0 0 15.442 63.235 A 445.195 445.195 0 0 0 15.381 70.711 L 15.381 85.848 L 15.381 99.154 Q 16.362 98.172 20.736 95.85 A 155.703 155.703 0 0 1 23.071 94.637 A 958.873 958.873 0 0 0 28.318 91.942 Q 30.669 90.726 33.294 89.355 A 1960.854 1960.854 0 0 0 38.818 86.458 A 713.896 713.896 0 0 0 48.431 81.301 A 894.72 894.72 0 0 0 58.716 75.594 Q 69.336 69.613 78.857 63.265 A 193.484 193.484 0 0 0 87.799 56.948 A 146.785 146.785 0 0 0 95.581 50.692 A 54.141 54.141 0 0 0 99.405 47.071 Q 103.118 43.167 104.641 39.628 A 15.339 15.339 0 0 0 104.858 39.095 A 10.368 10.368 0 0 0 105.402 37.183 Q 105.972 33.996 104.131 31.226 A 11.609 11.609 0 0 0 102.661 29.452 Q 98.389 25.179 85.205 22.738 Q 80.322 22.412 74.3 22.738 A 142.56 142.56 0 0 0 67.993 23.226 A 129.375 129.375 0 0 0 48.218 26.766 A 89.729 89.729 0 0 0 31.399 32.916 A 82.793 82.793 0 0 0 29.785 33.724 A 45.89 45.89 0 0 0 22.579 38.273 A 34.535 34.535 0 0 0 16.357 44.466 Z M 567.871 44.466 A 136.084 136.084 0 0 0 567.539 48.403 Q 567.415 50.158 567.315 52.103 A 260.211 260.211 0 0 0 567.139 56.185 A 373.488 373.488 0 0 0 566.956 63.235 A 445.195 445.195 0 0 0 566.895 70.711 L 566.895 85.848 L 566.895 99.154 Q 567.876 98.172 572.249 95.85 A 155.703 155.703 0 0 1 574.585 94.637 A 958.873 958.873 0 0 0 579.832 91.942 Q 582.183 90.726 584.808 89.355 A 1960.854 1960.854 0 0 0 590.332 86.458 A 713.896 713.896 0 0 0 599.945 81.301 A 894.72 894.72 0 0 0 610.229 75.594 Q 620.85 69.613 630.371 63.265 A 193.484 193.484 0 0 0 639.313 56.948 A 146.785 146.785 0 0 0 647.095 50.692 A 54.141 54.141 0 0 0 650.919 47.071 Q 654.632 43.167 656.154 39.628 A 15.339 15.339 0 0 0 656.372 39.095 A 10.368 10.368 0 0 0 656.916 37.183 Q 657.485 33.996 655.645 31.226 A 11.609 11.609 0 0 0 654.175 29.452 Q 649.902 25.179 636.719 22.738 Q 631.836 22.412 625.814 22.738 A 142.56 142.56 0 0 0 619.507 23.226 A 129.375 129.375 0 0 0 599.731 26.766 A 89.729 89.729 0 0 0 582.913 32.916 A 82.793 82.793 0 0 0 581.299 33.724 A 45.89 45.89 0 0 0 574.093 38.273 A 34.535 34.535 0 0 0 567.871 44.466 Z M 1626.709 44.466 A 136.084 136.084 0 0 0 1626.377 48.403 Q 1626.253 50.158 1626.153 52.103 A 260.211 260.211 0 0 0 1625.977 56.185 A 373.488 373.488 0 0 0 1625.793 63.235 A 445.195 445.195 0 0 0 1625.732 70.711 L 1625.732 85.848 L 1625.732 99.154 Q 1626.714 98.172 1631.087 95.85 A 155.703 155.703 0 0 1 1633.423 94.637 A 958.873 958.873 0 0 0 1638.67 91.942 Q 1641.021 90.726 1643.646 89.355 A 1960.854 1960.854 0 0 0 1649.17 86.458 A 713.896 713.896 0 0 0 1658.783 81.301 A 894.72 894.72 0 0 0 1669.067 75.594 Q 1679.688 69.613 1689.209 63.265 A 193.484 193.484 0 0 0 1698.151 56.948 A 146.785 146.785 0 0 0 1705.933 50.692 A 54.141 54.141 0 0 0 1709.757 47.071 Q 1713.47 43.167 1714.992 39.628 A 15.339 15.339 0 0 0 1715.21 39.095 A 10.368 10.368 0 0 0 1715.754 37.183 Q 1716.323 33.996 1714.482 31.226 A 11.609 11.609 0 0 0 1713.013 29.452 Q 1708.74 25.179 1695.557 22.738 Q 1690.674 22.412 1684.652 22.738 A 142.56 142.56 0 0 0 1678.345 23.226 A 129.375 129.375 0 0 0 1658.569 26.766 A 89.729 89.729 0 0 0 1641.751 32.916 A 82.793 82.793 0 0 0 1640.137 33.724 A 45.89 45.89 0 0 0 1632.931 38.273 A 34.535 34.535 0 0 0 1626.709 44.466 Z" vector-effect="non-scaling-stroke"/>
    </g>
</svg>

