<svg width="9000" height="1300" xmlns="http://www.w3.org/2000/svg">


    <metadata>Icon Mafia</metadata>
    <g>
        <title>background</title>
        <rect fill="none" id="canvas_background" width="7000" height="1300" y="-1" x="-1" />
    </g>
    <g>
        <title>Layer 1</title>
        <path stroke="null" id="svg_1" d="m1225.03967,24.911397c1.397,-7.501 -1.534,-15.402 -8.03,-20.092c-8.327,-6.012 -19.842,-4.808 -26.771,2.776l-10.805,11.861l-17.055,7.32c-6.059,-1.874 -12.818,-2.035 -19.859,-0.295c-4.036,1 -5.23,0.765 -8.82,0.057c-7.852,-1.54 -16.064,-2.473 -29.164,1.714c-4.622,-0.27 -10.035,0.391 -18.546,3.18c-10.686,3.524 -17.339,11.924 -22.195,18.085l-1.614,2.067c-30.554,7.871 -42.624,25.046 -47.311,38.414c-0.927,2.598 -1.538,5.186 -2.035,7.775c-32.202,-24.409 -76.466,-26.623 -114.034,-4.661c-43.121,25.24 -62.406,73.024 -49.111,121.756c21.439,78.72 96.129,152.861 140.733,197.187l14.454,14.444c23.241,23.708 53.31,71.497 47.31,103.439c-1.461,7.966 -5.68,19.523 -25.152,28.341c-9.921,4.487 -19.413,7.27 -28.595,8.357c16.473,-46.178 8.507,-95.833 -22.761,-128.36c-44.634,-46.34 -86.79,-34.778 -102.897,-22.198c-6.781,5.33 -9.462,14.38 -6.662,22.525c2.821,8.149 10.521,13.63 19.179,13.622c21.419,-0.017 45.518,15.933 55.987,37.094c8.824,17.834 7.12,37.164 -4.84,56.373c-9.067,-7.395 -16.88,-15.548 -23.572,-22.58c-2.757,-2.881 -5.349,-5.604 -7.64,-7.835l-1.665,-1.846c-32.032,-36.098 -64.663,-57.159 -97.349,-62.916c-4.096,-57.769 -44.91,-116.209 -106.776,-150.185c-5.01,-2.77 -10.215,-5.224 -15.61,-7.448c-11.54,-60.358 -48.462,-100.833 -107.363,-117.405c-85.953,-24.221 -154.199,14.191 -187.249,105.332c-11.28,31.099 -35.246,137.111 -54.92,225.991l-3.703,16.656c-2.632,11.752 -16.328,32.875 -30.921,37.903c-4.028,1.415 -9.105,2.071 -16.128,-3.663c-14.331,-11.661 -5.868,-45.313 -1.317,-63.396c0.892,-3.51 1.636,-6.535 2.254,-9.288c3.72,-17.225 -1.933,-36.434 -14.78,-50.112c-12.557,-13.384 -29.935,-19.53 -47.676,-16.847c-37.574,5.657 -49.49,36.047 -54.172,49.743c-3.642,-6.953 -8.659,-16.083 -18.13,-21.492c-7.692,-4.392 -12.848,-6.14 -17.448,-6.813c-12.094,-6.805 -20.309,-7.472 -28.38,-7.523c-3.628,-0.017 -4.863,-0.017 -8.606,-1.827c-7.478,-3.561 -15.188,-4.657 -22.401,-3.282l-13.932,-8.835l-8.818,-13.435c-5.696,-8.681 -17.029,-11.623 -26.26,-6.832c-7.002,3.641 -11.017,10.902 -10.847,18.436c-6.966,3.08 -11.831,9.953 -12.03,17.951c-0.262,10.267 7.223,19.098 17.398,20.526l15.884,2.246l13.736,8.706c1.727,6.892 5.825,13.373 12.094,18.712c3.167,2.702 3.673,3.815 5.186,7.148c3.333,7.319 7.306,14.554 18.444,22.816c2.462,3.873 6.135,7.88 13.335,13.135c9.088,6.643 19.791,7.127 27.611,7.47c0.769,0.057 1.723,0.083 2.627,0.144c24.167,20.28 45.182,20.091 58.799,16.097c2.62,-0.756 5.097,-1.761 7.48,-2.849c-1.079,40.383 22.889,77.679 62.608,95.392c45.613,20.395 95.694,8.23 127.589,-30.939c51.487,-63.286 68.308,-167.161 78.337,-229.221l3.358,-20.188c5.738,-32.699 27.057,-84.961 56.516,-98.704c7.319,-3.425 19.205,-6.715 37.704,3.99c9.445,5.423 17.203,11.516 23.43,18.338c-47.115,13.513 -82.843,48.92 -91.066,93.289c-11.729,63.216 22.232,90.797 41.844,96.543c8.302,2.441 17.174,-0.661 22.181,-7.722c5.007,-7.008 4.96,-16.456 -0.056,-23.456c-12.527,-17.433 -13.575,-46.301 -2.464,-67.15c9.355,-17.541 26.075,-27.43 48.625,-28.883c-0.688,11.695 -2.793,22.801 -4.567,32.329c-0.746,3.907 -1.455,7.601 -1.941,10.773c-0.066,0.336 -0.344,1.494 -0.561,2.403c-9.723,42.807 -9.016,78.879 2.035,107.65c-47.453,29.3 -81.097,89.195 -85.97,156.131c-0.44,5.71 -0.506,11.514 -0.274,17.292c-50.059,35.647 -71.458,86.077 -62.002,146.537c13.796,88.23 77.118,134.254 173.778,126.334c32.967,-2.698 139.331,-25.034 228.344,-44.2l16.651,-3.595c11.807,-2.481 36.705,1.144 47.353,12.313c2.953,3.11 5.677,7.431 3.395,16.209c-4.622,17.879 -38.762,24.201 -57.1,27.617c-3.539,0.642 -6.615,1.207 -9.355,1.818c-17.221,3.799 -32.342,16.944 -39.416,34.317c-6.935,16.979 -5.315,35.363 4.521,50.357c20.807,31.811 53.391,29.979 67.794,28.526c-4.793,6.216 -11,14.561 -11.981,25.463c-0.777,8.804 -0.221,14.237 1.074,18.661c-1.172,13.821 1.666,21.604 4.972,28.93c1.5,3.31 1.979,4.44 1.941,8.583c-0.145,8.553 2.269,16.222 6.785,22.323l-2.995,20.776l-8.616,13.536c-5.622,8.778 -3.667,20.327 4.495,26.755a20.161,20.161 0 0 0 21.248,2.358c5.689,5.094 13.949,6.722 21.329,3.624c9.471,-3.964 14.463,-14.399 11.599,-24.273l-4.457,-15.427l3.166,-22.086c5.26,-4.439 9.216,-10.664 11.399,-18.24c1.101,-3.973 1.903,-4.902 4.313,-7.678c5.251,-6.066 10.181,-12.712 13.044,-26.249c2.523,-3.849 4.618,-8.884 6.411,-17.603c2.269,-11.025 -1.776,-20.959 -4.694,-28.212l-0.978,-2.451c8.37,-30.409 -0.553,-49.436 -9.827,-60.159c-1.823,-2.052 -3.761,-3.884 -5.719,-5.608c37.143,-15.818 61.063,-53.165 60.655,-96.665c-0.505,-49.97 -32.418,-90.401 -81.288,-103.097c-79.006,-20.429 -180.434,7.542 -241.018,24.273l-19.735,5.37c-32.143,8.413 -88.535,10.784 -113.29,-10.27c-6.157,-5.238 -14.106,-14.624 -12.086,-35.948c1.018,-10.835 3.318,-20.429 6.917,-28.922c31.921,37.215 78.991,54.937 122.746,43.924c62.359,-15.69 73.278,-58.047 70.321,-78.263c-1.231,-8.536 -7.758,-15.363 -16.222,-16.961c-8.484,-1.594 -17.055,2.357 -21.312,9.844c-10.652,18.619 -36.451,31.615 -60.031,30.209c-19.863,-1.186 -35.805,-12.266 -46.536,-32.197c10.939,-4.21 21.871,-6.951 31.299,-9.283c3.883,-0.956 7.524,-1.844 10.604,-2.72a98.01,98.01 0 0 0 2.427,-0.514c48.84,-10.231 84.016,-28.978 104.971,-55.74c48.853,24.8 114.764,23.377 174.141,-5.064c5.146,-2.469 10.189,-5.298 15.117,-8.379c55.826,25.735 110.228,19.29 158.005,-18.949c69.702,-55.774 78.242,-133.619 23.364,-213.552c-18.725,-27.288 -90.938,-108.517 -151.78,-176.244l-11.374,-12.691c-7.996,-9.016 -17.22,-32.418 -12.818,-47.219c1.211,-4.101 3.637,-8.621 12.39,-10.992c17.798,-4.846 40.249,21.625 52.303,35.848c2.337,2.766 4.334,5.137 6.245,7.235c11.846,13.074 30.758,19.638 49.334,17.176c18.21,-2.415 33.331,-12.978 41.484,-28.962c17.276,-33.846 -0.514,-61.217 -8.922,-73.007c7.775,1.087 18.108,2.336 28.055,-2.246c8.043,-3.688 12.453,-6.873 15.674,-10.202c12.576,-5.835 17.913,-12.164 22.625,-18.673c2.184,-2.942 2.885,-3.943 6.509,-5.944c9.942,-5.498 14.51,-12.778 16.634,-18.482l14.854,-6.395l16.034,0.299c10.401,0.208 19.265,-7.493 20.476,-17.815c0.898,-7.805 -2.827,-15.2 -9.133,-19.289m-550.352,564.555c-6.395,17.59 -45.841,34.8 -73.804,45.281c7.431,-14.08 17.303,-27.317 28.724,-37.963c21.614,-20.156 39.735,-19.617 43.533,-17.585c2.796,4.937 2.422,7.871 1.547,10.267zm29.738,-108.699c-5.646,0.457 -8.141,-1.079 -9.963,-2.864c-13.346,-13.156 -12.539,-56.163 -10.419,-85.962c9.705,12.608 17.638,27.114 22.565,41.946c9.297,28.007 1.267,44.274 -2.183,46.88zm102.753,100.699c-28.229,-8.736 -36.769,-24.739 -36.85,-29.032c2.89,-4.899 5.617,-6.035 8.111,-6.479c18.461,-3.171 52.97,22.508 75.938,41.598c-15.868,0.543 -32.286,-1.467 -47.199,-6.087z" fill="#ff00ff" />
        <path id="svg_2" d="m1214.05267,41.866397l-18.146,-4.034l9.292,-16.606l-13.762,15.094l-29.963,12.878c-2.659,-2.855 -7.15,-4.808 -14.076,-3.093c-18.313,4.567 -18.848,-5.196 -39.187,2.213c-4.168,1.536 -2.766,-2.005 -15.916,2.333c-9.144,2.998 -15.313,18.313 -21.427,19.625c-59.007,12.631 -35.631,62.969 -27.478,72.933c10.117,12.4 1.709,16.647 -2.778,12.19c-6.997,-7.004 -15.661,-18.482 -32.291,-34.861c-56.98,-56.212 -163.124,0.939 -139.122,88.98c22.616,82.917 112.542,164.499 150.14,202.808c34.016,34.662 93.13,129.41 16.052,164.337c-26.202,11.89 -48.683,12.799 -67.828,7.962c26.891,-43.856 25.336,-99.307 -6.433,-132.337c-43.737,-45.437 -75.862,-20.292 -75.862,-20.292c50.893,-0.039 114.815,64.386 62.143,133.408a94.539,94.539 0 0 1 -6.768,7.917c-22.557,-13.36 -38.771,-33.005 -49.775,-43.856c-4.882,-4.837 -49.451,-61.642 -104.848,-60.427c4.853,-58.954 -37.788,-118.886 -96.256,-151.026a137.712,137.712 0 0 0 -23.993,-10.297c-5.728,-44.073 -27.393,-93.837 -94.789,-112.82c-102.664,-28.916 -146.386,47.625 -162.748,92.785c-14.019,38.66 -51.583,212.109 -57.905,240.202c-6.003,26.787 -43.561,74.807 -79.546,45.471c-27.757,-22.599 -10.28,-73.164 -6.073,-92.628c4.521,-20.936 -14.058,-46.567 -39.686,-42.705c-30.712,4.62 -36.465,32.837 -39.986,41.925c-7.431,19.151 -24.768,9.685 -28.256,7.401c-5.26,-3.399 -8.738,-18.744 -17.112,-23.521c-12.022,-6.861 -11.33,-3.118 -15.119,-5.426c-18.442,-11.351 -20.945,-1.905 -37.965,-10.001c-5.307,-2.532 -9.507,-2.284 -12.6,-0.858c-1.035,0.667 -1.731,1.361 -2.707,2.254l-26.835,-17.025l-11.181,-17.063l6.9,17.256l-18.931,1.7l20.214,2.847l26.498,16.802c-1.353,3.977 -0.837,9.42 5.307,14.659c14.344,12.247 6.739,18.359 24.618,30.589c3.671,2.494 -0.032,3.408 11.151,11.565c7.756,5.683 23.802,1.785 28.446,6.012c44.613,40.606 71.943,-7.693 75.293,-20.139c4.177,-15.436 12.549,-11.077 11.534,-4.846c-1.645,9.774 -5.917,23.49 -9.554,46.548c-12.542,79.085 95.747,132.11 153.356,61.325c54.223,-66.66 68.217,-187.285 77.466,-240.146c8.413,-47.837 51.011,-151.081 124.263,-108.749c24.925,14.385 38.734,32.136 45.965,50.501c-51.332,3.667 -95.504,37.241 -103.845,82.325c-11.468,61.973 27.675,73.458 27.675,73.458c-29.693,-41.354 -14.491,-130.819 72.285,-128.199a97.7,97.7 0 0 1 10.374,0.892c2.265,26.109 -4.253,50.739 -6.662,65.979c-1.066,6.556 -19.861,71.153 8.489,115.483c-53.146,21.849 -88.036,83.99 -92.756,148.763c-0.656,8.97 -0.399,17.667 0.601,26.079c-37.683,23.599 -73.868,64.03 -63.043,133.191c16.477,105.375 104.259,113.235 152.147,109.301c40.954,-3.36 214.31,-41.477 242.458,-47.416c26.869,-5.689 86.161,8.455 74.507,53.373c-9.008,34.645 -62.253,39.828 -81.671,44.094c-20.963,4.61 -36.488,32.193 -22.297,53.875c17.008,25.99 45.045,19.464 54.75,18.898c20.543,-1.206 19.128,18.491 18.508,22.617c-0.905,6.207 -13.393,15.758 -14.251,25.322c-1.232,13.783 1.887,11.604 1.359,16.006c-2.651,21.507 6.981,19.808 6.7,38.685c-0.08,5.711 1.802,9.364 4.274,11.583l0.09,-0.099l0.73,0.778l0.723,0.557l0,0.029a9.344,9.344 0 0 0 2.357,1.113l-5.204,36.047l-10.983,17.225l12.938,-13.393l9.322,16.588l-5.689,-19.617l5.26,-36.403c3.985,-0.638 8.349,-3.484 10.444,-10.852c5.162,-18.146 13.885,-13.771 17.539,-35.116c0.76,-4.372 3.097,-1.386 5.884,-14.947c1.959,-9.42 -8.276,-22.392 -6.39,-28.356c18.324,-57.504 -36.974,-62.203 -49.656,-60.091c-15.779,2.638 -15.321,-6.781 -9.207,-8.435c9.568,-2.612 23.807,-4.436 46.278,-10.715c77.111,-21.589 80.208,-142.085 -8.124,-164.964c-83.222,-21.529 -198.695,16.021 -250.586,29.622c-46.987,12.301 -158.584,16.587 -150.62,-67.658c2.694,-28.649 13.057,-48.606 26.75,-62.813c24.728,45.101 73.649,71.273 118.095,60.073c61.166,-15.368 55.277,-55.74 55.277,-55.74c-25.238,44.184 -112.867,67.684 -146.66,-12.3a104.013,104.013 0 0 1 -3.51,-9.798c22.81,-12.954 47.896,-17.271 62.78,-21.431c6.765,-1.878 81.14,-12.785 106.097,-64.221c45.479,32.767 114.696,31.611 171.852,4.189c8.115,-3.867 15.538,-8.435 22.349,-13.465c39.179,20.984 92.263,32.32 146.92,-11.399c83.285,-66.647 46.507,-146.735 19.323,-186.349c-23.274,-33.888 -142.407,-165.425 -161.591,-186.909c-18.219,-20.511 -35.435,-78.968 9.36,-91.158c34.53,-9.398 65.487,34.254 78.85,49.016c14.399,15.872 46.027,15.681 57.83,-7.41c14.123,-27.67 -5.485,-48.776 -10.8,-56.917c-11.243,-17.216 6.543,-25.76 10.43,-27.301c5.826,-2.284 20.327,3.824 29.066,-0.21c12.59,-5.772 9.152,-7.399 13.227,-9.126c19.979,-8.39 13.736,-15.908 30.227,-25.034c4.55,-2.516 6.836,-5.558 7.754,-8.529l-0.166,-0.578c0.73,-2.562 0.646,-4.321 0.276,-5.712l29.432,-12.638l20.388,0.374m-548.113,325.224c0.564,-5.5 1.07,-11.931 1.381,-19.035c28.335,19.338 48.869,50.59 58.48,79.423c13.897,41.902 -1.513,71.388 -18.231,73.294c-55.592,6.365 -45.904,-90.814 -41.63,-133.682zm-80.092,294.455c-5.232,1.801 -11.297,3.993 -17.911,6.684c5.804,-33.809 25.665,-65.504 47.888,-86.245c32.278,-30.103 65.503,-28.371 74.209,-13.961c28.927,47.867 -63.459,79.535 -104.186,93.522zm215.34,-60.771c-42.174,-13.052 -57.151,-42.781 -48.989,-57.478c27.188,-48.908 100.573,15.544 132.945,43.981c4.146,3.654 9.059,7.833 14.688,12.213c-32.23,11.77 -69.625,10.294 -98.644,1.284z" />
    </g>
    <g id="svgGroup" fill="rgba(0, 0, 0, 1)" transform="matrix(3,0,0,3,1600,352)" stroke="rgba(255, 0, 255, 0.8)" stroke-width="0.8pt">
        <path d="M 985 180.001 L 947.75 180.001 A 16.772 16.772 0 0 1 945.286 179.833 Q 942.403 179.404 940.875 177.876 A 6.316 6.316 0 0 1 939.46 175.616 Q 938.75 173.747 938.75 171.001 L 938.75 9.001 A 16.772 16.772 0 0 1 938.918 6.537 Q 939.348 3.654 940.875 2.126 A 6.316 6.316 0 0 1 943.135 0.711 Q 945.004 0.001 947.75 0.001 L 988 0.001 Q 991.619 0.001 994.113 1.434 A 9.06 9.06 0 0 1 994.625 1.751 A 11.706 11.706 0 0 1 996.696 3.544 Q 997.591 4.508 998.436 5.767 A 25.718 25.718 0 0 1 999.5 7.501 L 1022 48.251 A 38.175 38.175 0 0 0 1022.674 49.418 Q 1023.304 50.463 1023.82 51.129 A 8.12 8.12 0 0 0 1024.125 51.501 A 2.876 2.876 0 0 0 1026.025 52.474 A 4.076 4.076 0 0 0 1026.5 52.501 L 1028.75 52.501 A 3.624 3.624 0 0 0 1029.807 52.355 A 2.801 2.801 0 0 0 1031.125 51.501 A 9.323 9.323 0 0 0 1031.647 50.84 Q 1032.187 50.096 1032.84 48.974 A 41.743 41.743 0 0 0 1033.25 48.251 L 1055.5 7.501 Q 1057.104 4.65 1058.899 2.942 A 10.994 10.994 0 0 1 1060.375 1.751 A 10.001 10.001 0 0 1 1063.737 0.342 Q 1065.047 0.044 1066.563 0.006 A 17.775 17.775 0 0 1 1067 0.001 L 1107.5 0.001 A 16.772 16.772 0 0 1 1109.964 0.169 Q 1112.848 0.599 1114.375 2.126 A 6.316 6.316 0 0 1 1115.79 4.386 Q 1116.5 6.255 1116.5 9.001 L 1116.5 171.001 A 16.772 16.772 0 0 1 1116.332 173.465 Q 1115.903 176.349 1114.375 177.876 A 6.316 6.316 0 0 1 1112.115 179.291 Q 1110.246 180.001 1107.5 180.001 L 1069 180.001 A 16.772 16.772 0 0 1 1066.536 179.833 Q 1063.653 179.404 1062.125 177.876 A 6.316 6.316 0 0 1 1060.71 175.616 Q 1060 173.747 1060 171.001 L 1060 83.001 L 1045.25 110.251 Q 1043 114.501 1039.875 116.376 A 12.396 12.396 0 0 1 1036.344 117.782 Q 1034.775 118.156 1032.948 118.232 A 22.849 22.849 0 0 1 1032 118.251 L 1022 118.251 A 19.928 19.928 0 0 1 1018.666 117.987 Q 1016.078 117.548 1014.125 116.376 A 12.301 12.301 0 0 1 1011.219 113.907 Q 1010.169 112.711 1009.253 111.152 A 23.171 23.171 0 0 1 1008.75 110.251 L 994 83.001 L 994 171.001 A 16.772 16.772 0 0 1 993.832 173.465 Q 993.403 176.349 991.875 177.876 A 6.316 6.316 0 0 1 989.615 179.291 Q 987.746 180.001 985 180.001 Z M 1014 73.251 L 983.5 26.751 A 10.946 10.946 0 0 0 982.364 25.172 Q 981.285 23.938 980 23.376 A 10.394 10.394 0 0 0 977.375 22.605 A 9.233 9.233 0 0 0 976 22.501 L 971.75 22.501 A 8.966 8.966 0 0 0 969.878 22.684 Q 968.707 22.934 967.832 23.527 A 4.884 4.884 0 0 0 966.875 24.376 A 5.681 5.681 0 0 0 965.854 26.165 Q 965.269 27.762 965.251 30.1 A 19.398 19.398 0 0 0 965.25 30.251 L 965.25 157.501 L 967.75 157.501 L 967.75 30.251 A 9.209 9.209 0 0 1 968.011 28.022 A 7.836 7.836 0 0 1 968.5 26.626 A 2.809 2.809 0 0 1 968.512 26.601 Q 969.27 25.001 971.75 25.001 L 975.5 25.001 Q 977.25 25.001 978.625 25.501 A 3.14 3.14 0 0 1 979.497 26.009 Q 980.25 26.608 981.038 27.774 A 15.955 15.955 0 0 1 981.5 28.501 L 1012 74.501 A 177.865 177.865 0 0 0 1014.117 77.611 Q 1017.092 81.873 1018.873 83.749 A 11.337 11.337 0 0 0 1018.875 83.751 A 6.97 6.97 0 0 0 1021.435 85.416 Q 1023.571 86.251 1026.75 86.251 Q 1029.94 86.251 1032.079 85.41 A 6.963 6.963 0 0 0 1034.625 83.751 A 27.048 27.048 0 0 0 1035.946 82.236 Q 1038.102 79.593 1041.427 74.61 A 222.54 222.54 0 0 0 1041.5 74.501 L 1072 28.501 A 16.379 16.379 0 0 1 1072.723 27.392 Q 1073.47 26.349 1074.15 25.846 A 2.709 2.709 0 0 1 1074.75 25.501 A 6.553 6.553 0 0 1 1076.032 25.142 Q 1076.66 25.03 1077.378 25.007 A 11.696 11.696 0 0 1 1077.75 25.001 L 1081.5 25.001 A 5.951 5.951 0 0 1 1082.714 25.116 Q 1083.414 25.262 1083.928 25.594 A 2.772 2.772 0 0 1 1084.875 26.626 A 7.39 7.39 0 0 1 1085.737 29.757 A 8.837 8.837 0 0 1 1085.75 30.251 L 1085.75 157.501 L 1088.25 157.501 L 1088.25 30.251 Q 1088.25 26.251 1086.625 24.376 A 5.011 5.011 0 0 0 1084.41 22.927 Q 1083.576 22.641 1082.549 22.547 A 11.526 11.526 0 0 0 1081.5 22.501 L 1077.25 22.501 Q 1075.25 22.501 1073.375 23.376 Q 1071.853 24.087 1070.577 25.869 A 13.075 13.075 0 0 0 1070 26.751 L 1039.5 73.251 A 164.294 164.294 0 0 1 1037.632 76.051 Q 1035.283 79.487 1033.829 81.131 A 13.877 13.877 0 0 1 1033.25 81.751 Q 1031.796 83.206 1029.02 83.602 A 16.086 16.086 0 0 1 1026.75 83.751 A 15.977 15.977 0 0 1 1024.42 83.594 Q 1023.247 83.42 1022.312 83.055 A 5.898 5.898 0 0 1 1020.25 81.751 A 17.246 17.246 0 0 1 1019.189 80.566 Q 1017.708 78.776 1015.453 75.439 A 174.009 174.009 0 0 1 1014 73.251 Z M 658.25 180.001 L 542.25 180.001 A 16.772 16.772 0 0 1 539.786 179.833 Q 536.903 179.404 535.375 177.876 A 6.316 6.316 0 0 1 533.96 175.616 Q 533.25 173.747 533.25 171.001 L 533.25 9.001 A 16.772 16.772 0 0 1 533.418 6.537 Q 533.848 3.654 535.375 2.126 A 6.316 6.316 0 0 1 537.635 0.711 Q 539.504 0.001 542.25 0.001 L 658.25 0.001 A 16.772 16.772 0 0 1 660.714 0.169 Q 663.598 0.599 665.125 2.126 A 6.316 6.316 0 0 1 666.54 4.386 Q 667.25 6.255 667.25 9.001 L 667.25 38.251 A 16.772 16.772 0 0 1 667.082 40.715 Q 666.653 43.599 665.125 45.126 A 6.316 6.316 0 0 1 662.865 46.541 Q 660.996 47.251 658.25 47.251 L 589.25 47.251 L 589.25 66.501 L 638 66.501 A 16.772 16.772 0 0 1 640.464 66.669 Q 643.348 67.099 644.875 68.626 A 6.316 6.316 0 0 1 646.29 70.886 Q 647 72.755 647 75.501 L 647 102.251 A 16.772 16.772 0 0 1 646.832 104.715 Q 646.403 107.599 644.875 109.126 A 6.316 6.316 0 0 1 642.615 110.541 Q 640.746 111.251 638 111.251 L 589.25 111.251 L 589.25 132.751 L 658.25 132.751 A 16.772 16.772 0 0 1 660.714 132.919 Q 663.598 133.349 665.125 134.876 A 6.316 6.316 0 0 1 666.54 137.136 Q 667.25 139.005 667.25 141.751 L 667.25 171.001 A 16.772 16.772 0 0 1 667.082 173.465 Q 666.653 176.349 665.125 177.876 A 6.316 6.316 0 0 1 662.865 179.291 Q 660.996 180.001 658.25 180.001 Z M 1782.5 180.001 L 1666.5 180.001 A 16.772 16.772 0 0 1 1664.036 179.833 Q 1661.153 179.404 1659.625 177.876 A 6.316 6.316 0 0 1 1658.21 175.616 Q 1657.5 173.747 1657.5 171.001 L 1657.5 9.001 A 16.772 16.772 0 0 1 1657.668 6.537 Q 1658.098 3.654 1659.625 2.126 A 6.316 6.316 0 0 1 1661.885 0.711 Q 1663.754 0.001 1666.5 0.001 L 1782.5 0.001 A 16.772 16.772 0 0 1 1784.964 0.169 Q 1787.848 0.599 1789.375 2.126 A 6.316 6.316 0 0 1 1790.79 4.386 Q 1791.5 6.255 1791.5 9.001 L 1791.5 38.251 A 16.772 16.772 0 0 1 1791.332 40.715 Q 1790.903 43.599 1789.375 45.126 A 6.316 6.316 0 0 1 1787.115 46.541 Q 1785.246 47.251 1782.5 47.251 L 1713.5 47.251 L 1713.5 66.501 L 1762.25 66.501 A 16.772 16.772 0 0 1 1764.714 66.669 Q 1767.598 67.099 1769.125 68.626 A 6.316 6.316 0 0 1 1770.54 70.886 Q 1771.25 72.755 1771.25 75.501 L 1771.25 102.251 A 16.772 16.772 0 0 1 1771.082 104.715 Q 1770.653 107.599 1769.125 109.126 A 6.316 6.316 0 0 1 1766.865 110.541 Q 1764.996 111.251 1762.25 111.251 L 1713.5 111.251 L 1713.5 132.751 L 1782.5 132.751 A 16.772 16.772 0 0 1 1784.964 132.919 Q 1787.848 133.349 1789.375 134.876 A 6.316 6.316 0 0 1 1790.79 137.136 Q 1791.5 139.005 1791.5 141.751 L 1791.5 171.001 A 16.772 16.772 0 0 1 1791.332 173.465 Q 1790.903 176.349 1789.375 177.876 A 6.316 6.316 0 0 1 1787.115 179.291 Q 1785.246 180.001 1782.5 180.001 Z M 1417 180.001 L 1338 180.001 A 16.772 16.772 0 0 1 1335.536 179.833 Q 1332.653 179.404 1331.125 177.876 A 6.316 6.316 0 0 1 1329.71 175.616 Q 1329 173.747 1329 171.001 L 1329 141.751 A 16.772 16.772 0 0 1 1329.168 139.287 Q 1329.598 136.404 1331.125 134.876 A 6.316 6.316 0 0 1 1333.385 133.461 Q 1335.254 132.751 1338 132.751 L 1405.25 132.751 A 7.868 7.868 0 0 0 1407.208 132.522 A 5.177 5.177 0 0 0 1410.125 130.626 Q 1411.75 128.501 1411.75 125.501 Q 1411.75 121.472 1410.29 119.465 A 5.071 5.071 0 0 0 1410.125 119.251 Q 1408.5 117.251 1405.25 117.001 L 1367.75 111.751 A 69.843 69.843 0 0 1 1355.127 108.806 Q 1347.581 106.239 1341.818 101.986 A 41.786 41.786 0 0 1 1339.625 100.251 A 26.848 26.848 0 0 1 1331.999 89.177 Q 1329 81.407 1329 70.251 L 1329 44.001 A 52.446 52.446 0 0 1 1330.625 30.559 A 36.288 36.288 0 0 1 1342.75 11.376 Q 1354.597 1.576 1374.238 0.219 A 94.541 94.541 0 0 1 1380.75 0.001 L 1450.75 0.001 A 16.772 16.772 0 0 1 1453.214 0.169 Q 1456.098 0.599 1457.625 2.126 A 6.316 6.316 0 0 1 1459.04 4.386 Q 1459.75 6.255 1459.75 9.001 L 1459.75 38.751 A 16.772 16.772 0 0 1 1459.582 41.215 Q 1459.153 44.099 1457.625 45.626 A 6.316 6.316 0 0 1 1455.365 47.041 Q 1453.496 47.751 1450.75 47.751 L 1392.5 47.751 A 7.956 7.956 0 0 0 1390.443 48.002 A 5.579 5.579 0 0 0 1387.5 49.876 Q 1385.75 52.001 1385.75 55.251 A 10.01 10.01 0 0 0 1386.11 57.991 A 8.009 8.009 0 0 0 1387.5 60.751 A 6.329 6.329 0 0 0 1391.288 63.077 A 8.973 8.973 0 0 0 1392.5 63.251 L 1429.75 68.251 Q 1445.943 70.564 1456.356 78.443 A 42.579 42.579 0 0 1 1458 79.751 A 26.985 26.985 0 0 1 1465.849 91.17 Q 1468.75 98.841 1468.75 109.751 L 1468.75 136.001 Q 1468.75 157.251 1454.875 168.626 A 47.13 47.13 0 0 1 1437.576 177.418 Q 1430.722 179.355 1422.575 179.84 A 93.954 93.954 0 0 1 1417 180.001 Z M 495.5 180.001 L 371.5 180.001 A 16.772 16.772 0 0 1 369.036 179.833 Q 366.153 179.404 364.625 177.876 A 6.316 6.316 0 0 1 363.21 175.616 Q 362.5 173.747 362.5 171.001 L 362.5 137.501 Q 362.5 132.751 364 129.126 Q 365.5 125.501 368.75 122.001 L 429.5 48.251 L 376 48.251 A 16.772 16.772 0 0 1 373.536 48.083 Q 370.653 47.654 369.125 46.126 A 6.316 6.316 0 0 1 367.71 43.866 Q 367 41.997 367 39.251 L 367 9.001 A 16.772 16.772 0 0 1 367.168 6.537 Q 367.598 3.654 369.125 2.126 A 6.316 6.316 0 0 1 371.385 0.711 Q 373.254 0.001 376 0.001 L 491 0.001 A 16.772 16.772 0 0 1 493.464 0.169 Q 496.348 0.599 497.875 2.126 A 6.316 6.316 0 0 1 499.29 4.386 Q 500 6.255 500 9.001 L 500 46.251 Q 500 50.85 498.731 54.286 A 16.458 16.458 0 0 1 498.5 54.876 Q 497 58.501 493.75 62.001 L 435.75 132.251 L 495.5 132.251 A 16.772 16.772 0 0 1 497.964 132.419 Q 500.848 132.849 502.375 134.376 A 6.316 6.316 0 0 1 503.79 136.636 Q 504.5 138.505 504.5 141.251 L 504.5 171.001 A 16.772 16.772 0 0 1 504.332 173.465 Q 503.903 176.349 502.375 177.876 A 6.316 6.316 0 0 1 500.115 179.291 Q 498.246 180.001 495.5 180.001 Z M 47.5 180.001 L 9 180.001 A 16.772 16.772 0 0 1 6.536 179.833 Q 3.653 179.404 2.125 177.876 A 6.316 6.316 0 0 1 0.71 175.616 Q 0 173.747 0 171.001 L 0 9.001 A 16.772 16.772 0 0 1 0.168 6.537 Q 0.598 3.654 2.125 2.126 A 6.316 6.316 0 0 1 4.385 0.711 Q 6.254 0.001 9 0.001 L 92.25 0.001 A 106.295 106.295 0 0 1 105.164 0.728 Q 122.907 2.907 130.875 11.626 A 39.917 39.917 0 0 1 140.728 32.278 A 55.844 55.844 0 0 1 141.5 41.751 L 141.5 53.251 A 58.901 58.901 0 0 1 140.985 61.267 Q 140.231 66.747 138.375 71.126 A 19.44 19.44 0 0 1 127.621 81.7 A 25.171 25.171 0 0 1 127.5 81.751 Q 141 83.251 149.375 92.751 A 32.427 32.427 0 0 1 156.573 107.068 Q 157.732 112.016 157.75 117.817 A 59.019 59.019 0 0 1 157.75 118.001 L 157.75 171.001 A 16.772 16.772 0 0 1 157.582 173.465 Q 157.153 176.349 155.625 177.876 A 6.316 6.316 0 0 1 153.365 179.291 Q 151.496 180.001 148.75 180.001 L 110 180.001 A 16.772 16.772 0 0 1 107.536 179.833 Q 104.653 179.404 103.125 177.876 A 6.316 6.316 0 0 1 101.71 175.616 Q 101 173.747 101 171.001 L 101 132.751 A 22.749 22.749 0 0 0 100.832 129.885 Q 100.426 126.693 99.035 124.832 A 6.698 6.698 0 0 0 98.875 124.626 A 6.24 6.24 0 0 0 96.308 122.786 Q 95.249 122.357 93.91 122.162 A 16.798 16.798 0 0 0 91.5 122.001 L 56.5 122.001 L 56.5 171.001 A 16.772 16.772 0 0 1 56.332 173.465 Q 55.903 176.349 54.375 177.876 A 6.316 6.316 0 0 1 52.115 179.291 Q 50.246 180.001 47.5 180.001 Z M 744.25 180.001 L 705.75 180.001 A 16.772 16.772 0 0 1 703.286 179.833 Q 700.403 179.404 698.875 177.876 A 6.316 6.316 0 0 1 697.46 175.616 Q 696.75 173.747 696.75 171.001 L 696.75 9.001 A 16.772 16.772 0 0 1 696.918 6.537 Q 697.348 3.654 698.875 2.126 A 6.316 6.316 0 0 1 701.135 0.711 Q 703.004 0.001 705.75 0.001 L 789 0.001 A 106.295 106.295 0 0 1 801.914 0.728 Q 819.657 2.907 827.625 11.626 A 39.917 39.917 0 0 1 837.478 32.278 A 55.844 55.844 0 0 1 838.25 41.751 L 838.25 53.251 A 58.901 58.901 0 0 1 837.735 61.267 Q 836.981 66.747 835.125 71.126 A 19.44 19.44 0 0 1 824.371 81.7 A 25.171 25.171 0 0 1 824.25 81.751 Q 837.75 83.251 846.125 92.751 A 32.427 32.427 0 0 1 853.323 107.068 Q 854.482 112.016 854.5 117.817 A 59.019 59.019 0 0 1 854.5 118.001 L 854.5 171.001 A 16.772 16.772 0 0 1 854.332 173.465 Q 853.903 176.349 852.375 177.876 A 6.316 6.316 0 0 1 850.115 179.291 Q 848.246 180.001 845.5 180.001 L 806.75 180.001 A 16.772 16.772 0 0 1 804.286 179.833 Q 801.403 179.404 799.875 177.876 A 6.316 6.316 0 0 1 798.46 175.616 Q 797.75 173.747 797.75 171.001 L 797.75 132.751 A 22.749 22.749 0 0 0 797.582 129.885 Q 797.176 126.693 795.785 124.832 A 6.698 6.698 0 0 0 795.625 124.626 A 6.24 6.24 0 0 0 793.058 122.786 Q 791.999 122.357 790.66 122.162 A 16.798 16.798 0 0 0 788.25 122.001 L 753.25 122.001 L 753.25 171.001 A 16.772 16.772 0 0 1 753.082 173.465 Q 752.653 176.349 751.125 177.876 A 6.316 6.316 0 0 1 748.865 179.291 Q 746.996 180.001 744.25 180.001 Z M 1868.5 180.001 L 1830 180.001 A 16.772 16.772 0 0 1 1827.536 179.833 Q 1824.653 179.404 1823.125 177.876 A 6.316 6.316 0 0 1 1821.71 175.616 Q 1821 173.747 1821 171.001 L 1821 9.001 A 16.772 16.772 0 0 1 1821.168 6.537 Q 1821.598 3.654 1823.125 2.126 A 6.316 6.316 0 0 1 1825.385 0.711 Q 1827.254 0.001 1830 0.001 L 1913.25 0.001 A 106.295 106.295 0 0 1 1926.164 0.728 Q 1943.907 2.907 1951.875 11.626 A 39.917 39.917 0 0 1 1961.728 32.278 A 55.844 55.844 0 0 1 1962.5 41.751 L 1962.5 53.251 A 58.901 58.901 0 0 1 1961.985 61.267 Q 1961.231 66.747 1959.375 71.126 A 19.44 19.44 0 0 1 1948.621 81.7 A 25.171 25.171 0 0 1 1948.5 81.751 Q 1962 83.251 1970.375 92.751 A 32.427 32.427 0 0 1 1977.573 107.068 Q 1978.732 112.016 1978.75 117.817 A 59.019 59.019 0 0 1 1978.75 118.001 L 1978.75 171.001 A 16.772 16.772 0 0 1 1978.582 173.465 Q 1978.153 176.349 1976.625 177.876 A 6.316 6.316 0 0 1 1974.365 179.291 Q 1972.496 180.001 1969.75 180.001 L 1931 180.001 A 16.772 16.772 0 0 1 1928.536 179.833 Q 1925.653 179.404 1924.125 177.876 A 6.316 6.316 0 0 1 1922.71 175.616 Q 1922 173.747 1922 171.001 L 1922 132.751 A 22.749 22.749 0 0 0 1921.832 129.885 Q 1921.426 126.693 1920.035 124.832 A 6.698 6.698 0 0 0 1919.875 124.626 A 6.24 6.24 0 0 0 1917.308 122.786 Q 1916.249 122.357 1914.91 122.162 A 16.798 16.798 0 0 0 1912.5 122.001 L 1877.5 122.001 L 1877.5 171.001 A 16.772 16.772 0 0 1 1877.332 173.465 Q 1876.903 176.349 1875.375 177.876 A 6.316 6.316 0 0 1 1873.115 179.291 Q 1871.246 180.001 1868.5 180.001 Z M 644.75 157.501 L 644.75 155.001 L 563 155.001 L 563 90.251 L 624.5 90.251 L 624.5 87.751 L 563 87.751 L 563 25.001 L 644.75 25.001 L 644.75 22.501 L 560.5 22.501 L 560.5 157.501 L 644.75 157.501 Z M 1769 157.501 L 1769 155.001 L 1687.25 155.001 L 1687.25 90.251 L 1748.75 90.251 L 1748.75 87.751 L 1687.25 87.751 L 1687.25 25.001 L 1769 25.001 L 1769 22.501 L 1684.75 22.501 L 1684.75 157.501 L 1769 157.501 Z M 1437.25 25.001 L 1437.25 22.501 L 1381.75 22.501 A 33.721 33.721 0 0 0 1373.758 23.398 A 23.615 23.615 0 0 0 1363.25 28.876 A 20.958 20.958 0 0 0 1356.271 44.168 A 27.748 27.748 0 0 0 1356.25 45.251 L 1356.25 65.751 A 40.106 40.106 0 0 0 1356.508 70.478 Q 1357.111 75.54 1359.125 78.422 A 9.274 9.274 0 0 0 1360.375 79.876 A 19.329 19.329 0 0 0 1367.125 83.947 A 25.554 25.554 0 0 0 1371 85.001 L 1423.75 95.751 A 24.949 24.949 0 0 1 1429.235 97.571 A 18.646 18.646 0 0 1 1434.875 101.626 A 11.738 11.738 0 0 1 1437.138 105.291 Q 1439 109.857 1439 117.751 L 1439 132.251 A 23.71 23.71 0 0 1 1437.637 140.439 A 20.78 20.78 0 0 1 1432.125 148.626 A 23.23 23.23 0 0 1 1421.11 154.248 A 34.062 34.062 0 0 1 1413.75 155.001 L 1351.5 155.001 L 1351.5 157.501 L 1413.75 157.501 A 36.957 36.957 0 0 0 1422.236 156.581 A 25.065 25.065 0 0 0 1434 150.376 A 23.721 23.721 0 0 0 1441.484 133.274 A 31.488 31.488 0 0 0 1441.5 132.251 L 1441.5 117.751 A 54.696 54.696 0 0 0 1441.196 111.751 Q 1440.501 105.483 1438.224 101.813 A 12.002 12.002 0 0 0 1436.625 99.751 A 22.606 22.606 0 0 0 1426.308 93.742 A 28.193 28.193 0 0 0 1424.25 93.251 L 1371.5 82.501 A 19.86 19.86 0 0 1 1366.9 81.148 A 15.079 15.079 0 0 1 1362.25 78.001 Q 1359.053 74.804 1358.776 67.226 A 40.446 40.446 0 0 1 1358.75 65.751 L 1358.75 45.251 A 20.024 20.024 0 0 1 1360.288 37.308 A 19.016 19.016 0 0 1 1365 30.751 A 21.102 21.102 0 0 1 1374.752 25.744 A 31.158 31.158 0 0 1 1381.75 25.001 L 1437.25 25.001 Z M 236.75 136.001 L 236.75 171.001 A 16.772 16.772 0 0 1 236.582 173.465 Q 236.153 176.349 234.625 177.876 A 6.316 6.316 0 0 1 232.365 179.291 Q 230.496 180.001 227.75 180.001 L 191 180.001 A 16.772 16.772 0 0 1 188.536 179.833 Q 185.653 179.404 184.125 177.876 A 6.316 6.316 0 0 1 182.71 175.616 Q 182 173.747 182 171.001 L 182 105.001 Q 182 97.501 184.375 87.751 Q 186.194 80.286 189.551 70.916 A 272.977 272.977 0 0 1 191.75 65.001 L 213.5 8.251 A 14.618 14.618 0 0 1 214.954 5.222 A 10.436 10.436 0 0 1 218.125 2.001 A 11.809 11.809 0 0 1 221.593 0.533 Q 223.672 0.001 226.25 0.001 L 293.5 0.001 A 18.711 18.711 0 0 1 296.834 0.282 Q 298.856 0.649 300.49 1.492 A 10.968 10.968 0 0 1 301.375 2.001 A 10.529 10.529 0 0 1 304.712 5.487 A 14.883 14.883 0 0 1 306 8.251 L 327.75 65.001 Q 331.578 74.954 333.868 83.002 A 128.74 128.74 0 0 1 335.125 87.751 A 95.733 95.733 0 0 1 336.663 95.302 Q 337.5 100.548 337.5 105.001 L 337.5 171.001 A 16.772 16.772 0 0 1 337.332 173.465 Q 336.903 176.349 335.375 177.876 A 6.316 6.316 0 0 1 333.115 179.291 Q 331.246 180.001 328.5 180.001 L 290.75 180.001 A 18.689 18.689 0 0 1 288.079 179.824 Q 286.719 179.627 285.628 179.211 A 7.165 7.165 0 0 1 283.375 177.876 Q 281 175.751 281 171.001 L 281 136.001 L 236.75 136.001 Z M 1202 136.001 L 1202 171.001 A 16.772 16.772 0 0 1 1201.832 173.465 Q 1201.403 176.349 1199.875 177.876 A 6.316 6.316 0 0 1 1197.615 179.291 Q 1195.746 180.001 1193 180.001 L 1156.25 180.001 A 16.772 16.772 0 0 1 1153.786 179.833 Q 1150.903 179.404 1149.375 177.876 A 6.316 6.316 0 0 1 1147.96 175.616 Q 1147.25 173.747 1147.25 171.001 L 1147.25 105.001 Q 1147.25 97.501 1149.625 87.751 Q 1151.444 80.286 1154.801 70.916 A 272.977 272.977 0 0 1 1157 65.001 L 1178.75 8.251 A 14.618 14.618 0 0 1 1180.204 5.222 A 10.436 10.436 0 0 1 1183.375 2.001 A 11.809 11.809 0 0 1 1186.843 0.533 Q 1188.922 0.001 1191.5 0.001 L 1258.75 0.001 A 18.711 18.711 0 0 1 1262.084 0.282 Q 1264.106 0.649 1265.74 1.492 A 10.968 10.968 0 0 1 1266.625 2.001 A 10.529 10.529 0 0 1 1269.962 5.487 A 14.883 14.883 0 0 1 1271.25 8.251 L 1293 65.001 Q 1296.828 74.954 1299.118 83.002 A 128.74 128.74 0 0 1 1300.375 87.751 A 95.733 95.733 0 0 1 1301.913 95.302 Q 1302.75 100.548 1302.75 105.001 L 1302.75 171.001 A 16.772 16.772 0 0 1 1302.582 173.465 Q 1302.153 176.349 1300.625 177.876 A 6.316 6.316 0 0 1 1298.365 179.291 Q 1296.496 180.001 1293.75 180.001 L 1256 180.001 A 18.689 18.689 0 0 1 1253.329 179.824 Q 1251.969 179.627 1250.878 179.211 A 7.165 7.165 0 0 1 1248.625 177.876 Q 1246.25 175.751 1246.25 171.001 L 1246.25 136.001 L 1202 136.001 Z M 396 138.001 L 469.25 44.001 A 44.978 44.978 0 0 0 471.152 41.373 A 36.158 36.158 0 0 0 472.25 39.626 A 9.07 9.07 0 0 0 473.44 35.924 A 11.27 11.27 0 0 0 473.5 34.751 L 473.5 30.751 Q 473.5 28.154 472.8 26.396 A 5.964 5.964 0 0 0 471.625 24.501 A 5.742 5.742 0 0 0 469.31 23.033 Q 467.813 22.501 465.75 22.501 L 389.5 22.501 L 389.5 25.001 L 465.75 25.001 Q 467.75 25.001 469.375 26.126 A 3.14 3.14 0 0 1 470.424 27.424 Q 471 28.666 471 30.751 L 471 34.251 A 11.623 11.623 0 0 1 470.898 35.843 Q 470.701 37.264 470.125 38.251 Q 469.29 39.683 467.658 41.797 A 68.7 68.7 0 0 1 467.5 42.001 L 394.25 136.001 A 44.978 44.978 0 0 0 392.348 138.629 A 36.158 36.158 0 0 0 391.25 140.376 A 9.07 9.07 0 0 0 390.06 144.078 A 11.27 11.27 0 0 0 390 145.251 L 390 149.251 Q 390 151.849 390.701 153.606 A 5.964 5.964 0 0 0 391.875 155.501 A 5.742 5.742 0 0 0 394.19 156.969 Q 395.688 157.501 397.75 157.501 L 482 157.501 L 482 155.001 L 397.75 155.001 Q 395.75 155.001 394.125 153.876 A 3.14 3.14 0 0 1 393.077 152.578 Q 392.5 151.336 392.5 149.251 L 392.5 145.751 A 11.623 11.623 0 0 1 392.602 144.159 Q 392.799 142.738 393.375 141.751 Q 394.21 140.32 395.842 138.205 A 68.7 68.7 0 0 1 396 138.001 Z M 1578.5 180.001 L 1538 180.001 A 16.772 16.772 0 0 1 1535.536 179.833 Q 1532.653 179.404 1531.125 177.876 A 6.316 6.316 0 0 1 1529.71 175.616 Q 1529 173.747 1529 171.001 L 1529 48.251 L 1492.25 48.251 A 16.772 16.772 0 0 1 1489.786 48.083 Q 1486.903 47.654 1485.375 46.126 A 6.316 6.316 0 0 1 1483.96 43.866 Q 1483.25 41.997 1483.25 39.251 L 1483.25 9.001 A 16.772 16.772 0 0 1 1483.418 6.537 Q 1483.848 3.654 1485.375 2.126 A 6.316 6.316 0 0 1 1487.635 0.711 Q 1489.504 0.001 1492.25 0.001 L 1624.25 0.001 A 16.772 16.772 0 0 1 1626.714 0.169 Q 1629.598 0.599 1631.125 2.126 A 6.316 6.316 0 0 1 1632.54 4.386 Q 1633.25 6.255 1633.25 9.001 L 1633.25 39.251 A 16.772 16.772 0 0 1 1633.082 41.715 Q 1632.653 44.599 1631.125 46.126 A 6.316 6.316 0 0 1 1628.865 47.541 Q 1626.996 48.251 1624.25 48.251 L 1587.5 48.251 L 1587.5 171.001 A 16.772 16.772 0 0 1 1587.332 173.465 Q 1586.903 176.349 1585.375 177.876 A 6.316 6.316 0 0 1 1583.115 179.291 Q 1581.246 180.001 1578.5 180.001 Z M 27 157.501 L 29.5 157.501 L 29.5 99.501 L 100.25 99.501 Q 114.5 99.501 121.25 105.626 A 19.339 19.339 0 0 1 126.708 114.455 Q 128 118.642 128 124.001 L 128 157.501 L 130.5 157.501 L 130.5 124.001 A 36.025 36.025 0 0 0 129.693 116.129 Q 128.039 108.745 123 104.126 A 23.337 23.337 0 0 0 114.784 99.366 Q 111.224 98.127 106.847 97.614 A 56.743 56.743 0 0 0 100.25 97.251 L 97.5 97.251 A 22.898 22.898 0 0 0 102.979 94.814 A 15.999 15.999 0 0 0 109.5 87.126 A 36.295 36.295 0 0 0 111.439 80.471 Q 112.5 75.091 112.5 68.251 L 112.5 51.001 Q 112.5 38.751 105.5 30.626 A 21.925 21.925 0 0 0 95.252 24.056 Q 91.609 22.902 87.176 22.605 A 47.434 47.434 0 0 0 84 22.501 L 27 22.501 L 27 157.501 Z M 723.75 157.501 L 726.25 157.501 L 726.25 99.501 L 797 99.501 Q 811.25 99.501 818 105.626 A 19.339 19.339 0 0 1 823.458 114.455 Q 824.75 118.642 824.75 124.001 L 824.75 157.501 L 827.25 157.501 L 827.25 124.001 A 36.025 36.025 0 0 0 826.443 116.129 Q 824.789 108.745 819.75 104.126 A 23.337 23.337 0 0 0 811.534 99.366 Q 807.974 98.127 803.597 97.614 A 56.743 56.743 0 0 0 797 97.251 L 794.25 97.251 A 22.898 22.898 0 0 0 799.729 94.814 A 15.999 15.999 0 0 0 806.25 87.126 A 36.295 36.295 0 0 0 808.189 80.471 Q 809.25 75.091 809.25 68.251 L 809.25 51.001 Q 809.25 38.751 802.25 30.626 A 21.925 21.925 0 0 0 792.002 24.056 Q 788.359 22.902 783.926 22.605 A 47.434 47.434 0 0 0 780.75 22.501 L 723.75 22.501 L 723.75 157.501 Z M 1848 157.501 L 1850.5 157.501 L 1850.5 99.501 L 1921.25 99.501 Q 1935.5 99.501 1942.25 105.626 A 19.339 19.339 0 0 1 1947.708 114.455 Q 1949 118.642 1949 124.001 L 1949 157.501 L 1951.5 157.501 L 1951.5 124.001 A 36.025 36.025 0 0 0 1950.693 116.129 Q 1949.039 108.745 1944 104.126 A 23.337 23.337 0 0 0 1935.784 99.366 Q 1932.224 98.127 1927.847 97.614 A 56.743 56.743 0 0 0 1921.25 97.251 L 1918.5 97.251 A 22.898 22.898 0 0 0 1923.979 94.814 A 15.999 15.999 0 0 0 1930.5 87.126 A 36.295 36.295 0 0 0 1932.439 80.471 Q 1933.5 75.091 1933.5 68.251 L 1933.5 51.001 Q 1933.5 38.751 1926.5 30.626 A 21.925 21.925 0 0 0 1916.252 24.056 Q 1912.609 22.902 1908.176 22.605 A 47.434 47.434 0 0 0 1905 22.501 L 1848 22.501 L 1848 157.501 Z M 308.5 114.501 L 308.5 157.501 L 311 157.501 L 311 104.251 A 76.088 76.088 0 0 0 310.644 96.732 A 60.07 60.07 0 0 0 309.875 91.376 Q 308.75 85.501 306.75 80.001 L 289.5 39.251 Q 286.5 32.001 283.125 27.251 A 10.396 10.396 0 0 0 277.976 23.476 Q 276.18 22.836 273.952 22.616 A 24.965 24.965 0 0 0 271.5 22.501 L 247 22.501 A 23.789 23.789 0 0 0 242.642 22.872 Q 240.282 23.312 238.474 24.277 A 10.227 10.227 0 0 0 235 27.251 Q 231.5 32.001 228.75 39.001 L 212.75 80.001 Q 210.75 85.501 209.625 91.376 A 62.3 62.3 0 0 0 208.686 98.749 A 78.993 78.993 0 0 0 208.5 104.251 L 208.5 157.501 L 211 157.501 L 211 114.501 L 308.5 114.501 Z M 1273.75 114.501 L 1273.75 157.501 L 1276.25 157.501 L 1276.25 104.251 A 76.088 76.088 0 0 0 1275.894 96.732 A 60.07 60.07 0 0 0 1275.125 91.376 Q 1274 85.501 1272 80.001 L 1254.75 39.251 Q 1251.75 32.001 1248.375 27.251 A 10.396 10.396 0 0 0 1243.226 23.476 Q 1241.43 22.836 1239.202 22.616 A 24.965 24.965 0 0 0 1236.75 22.501 L 1212.25 22.501 A 23.789 23.789 0 0 0 1207.892 22.872 Q 1205.532 23.312 1203.724 24.277 A 10.227 10.227 0 0 0 1200.25 27.251 Q 1196.75 32.001 1194 39.001 L 1178 80.001 Q 1176 85.501 1174.875 91.376 A 62.3 62.3 0 0 0 1173.936 98.749 A 78.993 78.993 0 0 0 1173.75 104.251 L 1173.75 157.501 L 1176.25 157.501 L 1176.25 114.501 L 1273.75 114.501 Z M 1557 25.001 L 1557 157.501 L 1559.5 157.501 L 1559.5 25.001 L 1610.75 25.001 L 1610.75 22.501 L 1505.75 22.501 L 1505.75 25.001 L 1557 25.001 Z M 211 112.001 L 211 104.251 A 71.079 71.079 0 0 1 211.397 96.588 A 57.482 57.482 0 0 1 212.125 91.751 A 81.452 81.452 0 0 1 213.968 84.199 A 70.086 70.086 0 0 1 215 81.001 L 231 40.001 Q 233.281 34.3 235.977 30.16 A 39.437 39.437 0 0 1 236.5 29.376 A 9.297 9.297 0 0 1 241.256 25.854 Q 242.891 25.281 244.922 25.093 A 22.573 22.573 0 0 1 247 25.001 L 271.5 25.001 Q 276.245 25.001 279.152 27.011 A 9.113 9.113 0 0 1 281.5 29.376 A 48.679 48.679 0 0 1 284.077 33.611 Q 285.297 35.849 286.472 38.465 A 89.018 89.018 0 0 1 287.25 40.251 L 304.5 81.001 A 74.613 74.613 0 0 1 306.734 88.749 A 86.947 86.947 0 0 1 307.375 91.751 A 60.156 60.156 0 0 1 308.342 99.329 A 74.557 74.557 0 0 1 308.5 104.251 L 308.5 112.001 L 211 112.001 Z M 1176.25 112.001 L 1176.25 104.251 A 71.079 71.079 0 0 1 1176.647 96.588 A 57.482 57.482 0 0 1 1177.375 91.751 A 81.452 81.452 0 0 1 1179.218 84.199 A 70.086 70.086 0 0 1 1180.25 81.001 L 1196.25 40.001 Q 1198.531 34.3 1201.227 30.16 A 39.437 39.437 0 0 1 1201.75 29.376 A 9.297 9.297 0 0 1 1206.506 25.854 Q 1208.141 25.281 1210.172 25.093 A 22.573 22.573 0 0 1 1212.25 25.001 L 1236.75 25.001 Q 1241.495 25.001 1244.402 27.011 A 9.113 9.113 0 0 1 1246.75 29.376 A 48.679 48.679 0 0 1 1249.327 33.611 Q 1250.547 35.849 1251.722 38.465 A 89.018 89.018 0 0 1 1252.5 40.251 L 1269.75 81.001 A 74.613 74.613 0 0 1 1271.984 88.749 A 86.947 86.947 0 0 1 1272.625 91.751 A 60.156 60.156 0 0 1 1273.592 99.329 A 74.557 74.557 0 0 1 1273.75 104.251 L 1273.75 112.001 L 1176.25 112.001 Z M 29.5 25.001 L 84 25.001 A 38.33 38.33 0 0 1 91.436 25.674 Q 95.678 26.514 98.926 28.402 A 18.774 18.774 0 0 1 103.625 32.251 Q 110 39.501 110 51.001 L 110 68.501 A 58.093 58.093 0 0 1 109.488 76.485 Q 108.924 80.54 107.739 83.856 A 24.707 24.707 0 0 1 104.75 89.751 A 14.933 14.933 0 0 1 98.496 94.744 Q 93.407 97.049 85.422 97.235 A 61.163 61.163 0 0 1 84 97.251 L 29.5 97.251 L 29.5 25.001 Z M 726.25 25.001 L 780.75 25.001 A 38.33 38.33 0 0 1 788.186 25.674 Q 792.428 26.514 795.676 28.402 A 18.774 18.774 0 0 1 800.375 32.251 Q 806.75 39.501 806.75 51.001 L 806.75 68.501 A 58.093 58.093 0 0 1 806.238 76.485 Q 805.674 80.54 804.489 83.856 A 24.707 24.707 0 0 1 801.5 89.751 A 14.933 14.933 0 0 1 795.246 94.744 Q 790.157 97.049 782.172 97.235 A 61.163 61.163 0 0 1 780.75 97.251 L 726.25 97.251 L 726.25 25.001 Z M 1850.5 25.001 L 1905 25.001 A 38.33 38.33 0 0 1 1912.436 25.674 Q 1916.678 26.514 1919.926 28.402 A 18.774 18.774 0 0 1 1924.625 32.251 Q 1931 39.501 1931 51.001 L 1931 68.501 A 58.093 58.093 0 0 1 1930.488 76.485 Q 1929.924 80.54 1928.739 83.856 A 24.707 24.707 0 0 1 1925.75 89.751 A 14.933 14.933 0 0 1 1919.496 94.744 Q 1914.407 97.049 1906.422 97.235 A 61.163 61.163 0 0 1 1905 97.251 L 1850.5 97.251 L 1850.5 25.001 Z M 251 52.501 L 239.25 90.501 L 278.5 90.501 L 266.75 52.501 Q 265.773 50.303 264.677 49.297 A 4.53 4.53 0 0 0 264.625 49.251 Q 263.5 48.251 262 48.251 L 255.75 48.251 Q 254.25 48.251 253.125 49.251 A 5.777 5.777 0 0 0 252.367 50.086 Q 251.679 50.995 251.042 52.409 A 19.242 19.242 0 0 0 251 52.501 Z M 1216.25 52.501 L 1204.5 90.501 L 1243.75 90.501 L 1232 52.501 Q 1231.023 50.303 1229.927 49.297 A 4.53 4.53 0 0 0 1229.875 49.251 Q 1228.75 48.251 1227.25 48.251 L 1221 48.251 Q 1219.5 48.251 1218.375 49.251 A 5.777 5.777 0 0 0 1217.617 50.086 Q 1216.929 50.995 1216.292 52.409 A 19.242 19.242 0 0 0 1216.25 52.501 Z M 75.25 45.001 L 56.5 45.001 L 56.5 77.001 L 75.25 77.001 A 19.526 19.526 0 0 0 78.235 76.79 Q 82.313 76.157 84 73.626 A 12.996 12.996 0 0 0 85.879 69.045 A 18.399 18.399 0 0 0 86.25 65.251 L 86.25 56.751 A 18.399 18.399 0 0 0 85.879 52.957 A 12.996 12.996 0 0 0 84 48.376 Q 82.321 45.858 78.275 45.218 A 19.453 19.453 0 0 0 75.25 45.001 Z M 772 45.001 L 753.25 45.001 L 753.25 77.001 L 772 77.001 A 19.526 19.526 0 0 0 774.985 76.79 Q 779.063 76.157 780.75 73.626 A 12.996 12.996 0 0 0 782.629 69.045 A 18.399 18.399 0 0 0 783 65.251 L 783 56.751 A 18.399 18.399 0 0 0 782.629 52.957 A 12.996 12.996 0 0 0 780.75 48.376 Q 779.071 45.858 775.025 45.218 A 19.453 19.453 0 0 0 772 45.001 Z M 1896.25 45.001 L 1877.5 45.001 L 1877.5 77.001 L 1896.25 77.001 A 19.526 19.526 0 0 0 1899.235 76.79 Q 1903.313 76.157 1905 73.626 A 12.996 12.996 0 0 0 1906.879 69.045 A 18.399 18.399 0 0 0 1907.25 65.251 L 1907.25 56.751 A 18.399 18.399 0 0 0 1906.879 52.957 A 12.996 12.996 0 0 0 1905 48.376 Q 1903.321 45.858 1899.275 45.218 A 19.453 19.453 0 0 0 1896.25 45.001 Z" vector-effect="non-scaling-stroke"/></g></svg>